<?xml version="1.0" encoding="UTF-8"?>
<svg version="1.1" xmlns="http://www.w3.org/2000/svg" width="512" height="512">
<path d="M0 0 C1.19947266 -0.020625 2.39894531 -0.04125 3.63476562 -0.0625 C18.69804424 -0.12753304 31.88138131 3.08167585 43.25 13.4375 C53.4712779 24.65841388 56.77275206 37.44929182 56.4375 52.25 C56.25469818 55.51689434 55.97347623 58.76983853 55.66796875 62.02734375 C55.58629959 62.91933975 55.50463043 63.81133575 55.42048645 64.73036194 C55.24723017 66.60196564 55.07147609 68.47333968 54.89331055 70.34448242 C54.62607914 73.17606541 54.37425634 76.00875331 54.12304688 78.84179688 C51.49010494 107.44690106 51.49010494 107.44690106 40.1875 117.3125 C37.4375 119.25 37.4375 119.25 35.4375 119.25 C35.4375 124.53 35.4375 129.81 35.4375 135.25 C47.27051363 138.01103651 59.02517318 139.57019079 71.125 140.625 C79.63318978 141.36981987 87.69398914 142.32403557 95.875 144.8125 C103.37112687 146.98984053 108.17812889 145.22443914 114.92578125 141.921875 C132.07999978 133.75501679 155.45229594 133.9663283 173.4375 139.25 C178.23487063 140.99304466 182.87309316 142.96779658 187.4375 145.25 C185.17317943 129.50267966 182.92738054 115.77105912 169.8359375 105.13671875 C162.52661774 99.57681639 162.52661774 99.57681639 153.84375 98.609375 C148.52265762 99.26865991 143.29612653 99.46833899 137.9375 99.5 C137.06480469 99.520625 136.19210937 99.54125 135.29296875 99.5625 C126.22345361 99.61624527 118.54995482 97.92572389 111.71484375 91.75 C108.78758446 88.3124845 108.98268689 84.0050276 109.0390625 79.71484375 C111.01526072 62.52966902 120.58314819 40.45453474 133.19921875 28.59375 C137.48172337 26.02275246 141.72891916 25.94026955 146.50390625 26.96484375 C148.00720003 27.35510258 149.50580842 27.76372452 151 28.1875 C152.22251465 28.52430786 152.22251465 28.52430786 153.46972656 28.86791992 C176.50160226 35.41453234 201.40474698 43.01080022 213.97851562 64.9230957 C215.14595252 67.02443117 216.2915024 69.13690594 217.4375 71.25 C218.07341064 72.38695313 218.07341064 72.38695313 218.72216797 73.546875 C234.39963808 101.59104514 244.97749451 132.09598842 253 163.125 C253.17639008 163.78946136 253.35278015 164.45392273 253.53451538 165.13851929 C256.05149885 174.6990747 258.42596037 184.93371413 255.375 194.625 C244.12828632 209.86248305 220.79720008 222.1275152 202.4375 226.25 C196.05579258 225.78851289 196.05579258 225.78851289 193.5 223.5625 C192.0761605 220.4635552 191.88596173 218.62817188 192.4375 215.25 C196.54235953 209.96382478 201.60401107 208.32987585 207.75 206.0625 C215.07303815 203.22125827 221.92385512 200.15337359 228.5625 195.9375 C229.20614502 195.52927002 229.84979004 195.12104004 230.51293945 194.70043945 C235.45640428 191.49261686 235.45640428 191.49261686 239.4375 187.25 C240.39809522 180.62189296 238.19057756 174.08215532 236.5625 167.6875 C236.25223877 166.46458252 235.94197754 165.24166504 235.62231445 163.98168945 C228.29906593 135.88691525 217.99855232 108.93676337 204.4375 83.25 C204.07269531 82.54697754 203.70789063 81.84395508 203.33203125 81.11962891 C197.70930074 69.62194933 197.70930074 69.62194933 188.4375 61.25 C187.43332031 60.65574219 186.42914063 60.06148437 185.39453125 59.44921875 C171.92081005 51.95726183 156.40758609 46.79214857 141.4375 43.25 C141.18484375 43.92675781 140.9321875 44.60351562 140.671875 45.30078125 C139.49559247 48.11120313 138.14197935 50.77400117 136.72070312 53.46679688 C131.85552927 62.74649522 128.49429886 72.245931 125.4375 82.25 C128.97914915 82.2792067 132.52076697 82.29686814 136.0625 82.3125 C137.56103516 82.32506836 137.56103516 82.32506836 139.08984375 82.33789062 C143.99735149 82.35414065 148.61224546 82.25617941 153.4375 81.25 C161.92901349 79.68460795 167.85091468 83.05909615 174.74609375 87.625 C184.06159837 94.11288438 191.01962553 101.2454866 196.4375 111.25 C196.83582031 111.95382813 197.23414063 112.65765625 197.64453125 113.3828125 C201.25329046 120.4922033 202.24263097 128.45144086 203.4375 136.25 C203.54868164 136.96269043 203.65986328 137.67538086 203.77441406 138.40966797 C206.61292159 157.05484953 206.61292159 157.05484953 202.4375 163.1875 C198.39480715 165.96685134 195.3349224 166.89841262 190.4375 166.25 C187.59935645 165.0207129 185.04450968 163.53900582 182.39453125 161.9453125 C164.60114117 151.74408225 145.06818294 151.11527232 125.61328125 156.03125 C120.94946224 157.31928178 116.56426415 159.08792069 112.2109375 161.19921875 C105.70356755 163.66468708 100.7060914 163.40418307 94.125 161.4375 C84.98558921 158.90232292 75.86137465 158.05830027 66.4375 157.25 C33.36225807 154.41308546 33.36225807 154.41308546 21.4375 146.25 C19.4375 143.25 19.4375 143.25 19.4375 124.25 C6.8975 124.25 -5.6425 124.25 -18.5625 124.25 C-18.5625 130.52 -18.5625 136.79 -18.5625 143.25 C-32.10129716 156.78879716 -55.55066981 156.42101833 -73.58886719 158.04418945 C-80.53356255 158.70823979 -87.1145511 159.60608593 -93.8125 161.5625 C-100.23565499 163.34556232 -104.30329107 163.47273045 -110.5625 161.25 C-111.18769531 161.02924805 -111.81289062 160.80849609 -112.45703125 160.58105469 C-115.39249365 159.54220598 -118.32435761 158.49358551 -121.25366211 157.4375 C-138.94578512 151.12404725 -158.3157064 151.09272621 -175.53515625 159.00390625 C-179.66447905 161.00395706 -183.69817321 163.17827055 -187.67578125 165.46484375 C-191.28730543 166.96777617 -194.87261029 166.24975621 -198.5625 165.25 C-202.20488958 162.74585717 -203.34299953 161.2477294 -204.29296875 156.9296875 C-204.93327479 150.70764492 -203.78835507 144.58395708 -202.875 138.4375 C-202.71322266 137.23029297 -202.55144531 136.02308594 -202.38476562 134.77929688 C-200.03389761 118.49931577 -193.89031294 104.47329791 -181.5625 93.25 C-177.105583 89.92144896 -172.34743499 87.07588552 -167.5625 84.25 C-166.70011719 83.67636719 -165.83773437 83.10273437 -164.94921875 82.51171875 C-162.2567439 81.08836462 -160.64533731 80.9045707 -157.625 81 C-156.81160156 81.01546875 -155.99820313 81.0309375 -155.16015625 81.046875 C-152.5625 81.25 -152.5625 81.25 -149.95703125 81.76171875 C-145.03193767 82.47016144 -140.15564722 82.35416833 -135.1875 82.3125 C-134.16527344 82.30798828 -133.14304687 82.30347656 -132.08984375 82.29882812 C-129.58066806 82.287103 -127.0716151 82.27069176 -124.5625 82.25 C-127.83753139 71.53171545 -131.59258662 61.52488838 -136.828125 51.60546875 C-138.25207976 48.85056528 -139.47943445 46.15106844 -140.5625 43.25 C-151.33829369 46.23029001 -161.87735831 49.55992158 -172.25 53.75 C-173.14477051 54.10505615 -174.03954102 54.4601123 -174.96142578 54.82592773 C-186.65645134 59.6615181 -193.71686529 65.53679023 -199.8125 76.5625 C-200.20381104 77.26761719 -200.59512207 77.97273438 -200.99829102 78.69921875 C-216.44276832 106.74945908 -227.7418439 136.47085814 -235.625 167.5 C-235.9243042 168.67208008 -236.2236084 169.84416016 -236.53198242 171.05175781 C-238.56944594 179.06893096 -238.56944594 179.06893096 -238.5625 187.25 C-230.80662467 199.64919542 -208.64140535 206.07343026 -195.5625 210.25 C-194.82225586 210.48702637 -194.08201172 210.72405273 -193.31933594 210.96826172 C-172.10825721 217.55733518 -149.18554106 220.1515532 -127.03125 220.390625 C-126.29877045 220.40031311 -125.56629089 220.41000122 -124.81161499 220.41998291 C-120.28193385 220.47968221 -120.28193385 220.47968221 -115.75195312 220.50048828 C-113.51084266 220.50382043 -111.27197001 220.53826731 -109.03125 220.578125 C-107.05801758 220.59214355 -107.05801758 220.59214355 -105.04492188 220.60644531 C-100.73919071 221.40214829 -99.25247717 222.86793205 -96.5625 226.25 C-95.95772718 229.14654353 -96.50968554 231.50197583 -97.5625 234.25 C-99.95394552 236.71858892 -101.64277943 237.21387941 -105.04907227 237.34765625 C-106.38796509 237.33025391 -106.38796509 237.33025391 -107.75390625 237.3125 C-108.65439697 237.30347656 -109.5548877 237.29445312 -110.48266602 237.28515625 C-111.16901123 237.27355469 -111.85535645 237.26195312 -112.5625 237.25 C-105.49131037 257.27848988 -97.97116696 274.94197007 -85.5625 292.25 C-84.38676742 293.95210658 -83.21893023 295.65972072 -82.0625 297.375 C-81.5984375 298.05820312 -81.134375 298.74140625 -80.65625 299.4453125 C-69.28160258 318.21348074 -78.5625 343.30400394 -78.5625 365.25 C-26.4225 365.25 25.7175 365.25 79.4375 365.25 C79.4375 345.12 79.4375 324.99 79.4375 304.25 C82.14157632 298.84184735 84.5680714 294.44696981 88.125 289.75 C97.71811422 276.59550887 104.10566938 262.92637743 109.58496094 247.62109375 C110.83292803 244.15022995 112.13542974 240.7008856 113.4375 237.25 C112.77363281 237.28480469 112.10976563 237.31960937 111.42578125 237.35546875 C107.46682719 237.47683814 104.16281705 237.48683822 100.375 236.25 C97.91296075 233.70854013 97.54231134 231.80431444 96.9921875 228.3828125 C97.72591323 224.86865242 99.70123276 223.47279431 102.4375 221.25 C105.25279475 220.76330535 107.47446197 220.57302629 110.28125 220.61328125 C111.41822578 220.59873398 111.41822578 220.59873398 112.57817078 220.58389282 C114.19553113 220.56529571 115.81304552 220.55747391 117.43051147 220.55953979 C121.62743723 220.56449545 125.82317584 220.49301955 130.01953125 220.4296875 C131.25259758 220.41418098 131.25259758 220.41418098 132.51057434 220.39836121 C139.71046407 220.29132878 146.81819111 219.75780785 153.96875 218.90942383 C168.66015422 217.19205608 168.66015422 217.19205608 173.0625 219.8125 C174.96391491 223.18319007 174.91397608 225.43819135 174.4375 229.25 C173.0279755 231.64015782 172.1239777 232.97341202 169.52392578 234.02099609 C161.49138283 235.35888786 153.41794396 236.1415262 145.3125 236.875 C143.86453841 237.00993549 142.41662126 237.14534873 140.96875 237.28125 C137.45882784 237.60966887 133.94835088 237.93164372 130.4375 238.25 C130.07398438 239.44753906 129.71046875 240.64507812 129.3359375 241.87890625 C125.24711425 255.19474436 120.73068708 268.07749374 114.375 280.5 C114.02758255 281.17933594 113.6801651 281.85867188 113.32221985 282.55859375 C111.25793543 286.40625104 109.1702276 289.70119457 106.15991211 292.87646484 C92.63160975 307.81861486 94.57849106 325.89047598 95.00590897 344.80888748 C95.06288425 347.64412147 95.09361391 350.47847241 95.11593628 353.31417847 C95.39544753 387.05477456 98.27770679 420.42860055 102.32080078 453.90966797 C102.47889331 455.22182329 102.47889331 455.22182329 102.64017963 456.56048679 C103.13596756 460.65358138 103.6443492 464.744352 104.17893982 468.83256531 C104.27151754 469.56427256 104.36409527 470.2959798 104.45947838 471.04986 C104.70581773 472.99631679 104.9605964 474.94170044 105.21607971 476.88697815 C105.53087357 481.66819588 105.51970518 485.008647 102.3125 488.6875 C98.52061561 490.74830673 96.54331917 490.39050533 92.4375 489.25 C90.47487828 487.7135684 89.57825794 486.73513001 88.88005066 484.32872009 C88.79354752 483.59367752 88.70704437 482.85863495 88.61791992 482.10131836 C88.51127518 481.24647354 88.40463043 480.39162872 88.29475403 479.51087952 C88.19103989 478.56756271 88.08732574 477.62424591 87.98046875 476.65234375 C87.86019821 475.64815903 87.73992767 474.6439743 87.61601257 473.60935974 C87.20817387 470.15780743 86.82194551 466.70423281 86.4375 463.25 C86.21658063 461.31412739 85.9956543 459.37825556 85.77438545 457.44242287 C84.89129326 449.69682702 84.04846695 441.9472133 83.22045898 434.19555664 C82.82804037 430.5256438 82.42520561 426.85694998 82.02012348 423.18841648 C81.7029353 420.29837718 81.39347282 417.40754544 81.08595848 414.51646233 C80.87195523 412.52223618 80.6500492 410.52886292 80.42781067 408.53553772 C79.45967837 399.2897977 79.4375 390.66806327 79.4375 381.25 C27.6275 381.25 -24.1825 381.25 -77.5625 381.25 C-78.5525 392.8 -79.5425 404.35 -80.5625 416.25 C-81.6427742 426.98296927 -82.73852539 437.71074739 -83.89685059 448.43505859 C-84.2081773 451.33810945 -84.51169688 454.24196049 -84.81561375 457.14579487 C-85.11385475 459.98162035 -85.41819157 462.81676694 -85.72428703 465.65175438 C-85.93541961 467.61997267 -86.14059523 469.58882712 -86.34559631 471.55769348 C-86.541063 473.33958321 -86.541063 473.33958321 -86.74047852 475.1574707 C-86.85134293 476.19329788 -86.96220734 477.22912506 -87.07643127 478.29634094 C-87.74637343 482.36733049 -88.50434419 486.03508037 -91.25 489.1875 C-94.66744133 490.75767574 -96.97901825 490.16215899 -100.5625 489.25 C-103.16064735 487.60450668 -103.48512513 486.5859158 -104.17735291 483.58067322 C-104.60208057 479.90771537 -104.33122674 476.81195657 -103.84985352 473.14672852 C-103.66786295 471.70866703 -103.48589813 470.27060229 -103.30395508 468.83253479 C-103.15441879 467.68896609 -103.15441879 467.68896609 -103.00186157 466.522295 C-102.45695459 462.32145142 -101.95235048 458.11574077 -101.44555664 453.91015625 C-101.33738176 453.01448724 -101.22920689 452.11881823 -101.11775398 451.19600773 C-97.09908057 417.69851499 -94.4662004 384.32099212 -94.16016769 350.57502365 C-94.12528384 347.77280125 -94.0629044 344.97246468 -93.99246216 342.17092896 C-93.50605288 321.47874904 -93.35254353 305.602628 -107.83374023 289.35317993 C-119.47200621 275.19426212 -124.46908068 255.47967525 -129.5625 238.25 C-130.58794922 238.15501221 -131.61339844 238.06002441 -132.66992188 237.9621582 C-173.10958028 234.16973119 -223.38353244 229.42307804 -252.5625 197.25 C-256.72440144 191.49087762 -256.14879396 185.04200415 -255.5625 178.25 C-254.71140854 173.19673092 -253.49900055 168.26245206 -252.1875 163.3125 C-252.01054596 162.62702087 -251.83359192 161.94154175 -251.65127563 161.23529053 C-226.78955573 65.02805637 -226.78955573 65.02805637 -195.4296875 45.96826172 C-179.36551227 36.64867771 -156.45902993 26.25 -137.5625 26.25 C-130.15190208 28.57489346 -125.75416529 35.37552594 -122.18945312 41.9465332 C-121.83818359 42.62417725 -121.48691406 43.30182129 -121.125 44 C-120.74666016 44.72082764 -120.36832031 45.44165527 -119.97851562 46.18432617 C-113.52760027 58.84356994 -107.38151921 72.82056202 -108.5625 87.25 C-110.26331325 91.45727487 -112.75463548 93.81944818 -116.5625 96.25 C-123.41780481 98.95459782 -129.74849274 99.67285689 -137.0625 99.5 C-138.37154297 99.49226563 -138.37154297 99.49226563 -139.70703125 99.484375 C-144.16324292 99.43156064 -148.47545893 99.15432705 -152.89453125 98.57421875 C-156.97756702 98.13534656 -159.27104215 98.42333617 -162.75 100.8125 C-163.575 101.37710938 -164.4 101.94171875 -165.25 102.5234375 C-166.013125 103.09320313 -166.77625 103.66296875 -167.5625 104.25 C-168.201875 104.69601563 -168.84125 105.14203125 -169.5 105.6015625 C-180.282511 113.83285438 -183.87141642 126.07232421 -185.75 138.875 C-186.02852105 140.99900605 -186.30207414 143.12369944 -186.5625 145.25 C-185.89605469 144.92386719 -185.22960937 144.59773437 -184.54296875 144.26171875 C-161.2553482 133.2204553 -136.28236698 133.88968738 -112.3125 142.375 C-109.72387938 143.31980642 -107.14322201 144.28367584 -104.5625 145.25 C-100.74020084 146.52409972 -98.26319601 145.50929296 -94.5390625 144.44140625 C-85.41618704 141.9965122 -76.32142292 141.04172205 -66.9375 140.1875 C-55.91422906 139.16378185 -45.36034832 137.79448629 -34.5625 135.25 C-34.5625 129.97 -34.5625 124.69 -34.5625 119.25 C-36.2125 118.59 -37.8625 117.93 -39.5625 117.25 C-53.12160946 105.74871796 -52.47570192 86.34514744 -53.99511719 69.99584961 C-54.18908982 67.92049016 -54.39123697 65.8460259 -54.59375 63.77148438 C-57.2391349 36.06536028 -57.2391349 36.06536028 -50.5625 25.5625 C-48.5625 23.25 -48.5625 23.25 -45.5625 21.25 C-42.22783315 21.42864287 -39.5764731 21.69395023 -36.625 23.3125 C-34.86063939 26.52986347 -35.08248954 29.71979647 -35.5625 33.25 C-36.05869683 34.71689883 -36.58154267 36.17494565 -37.125 37.625 C-39.28599877 44.46645581 -38.47125294 51.13732765 -37.83789062 58.15966797 C-37.5707752 61.15713881 -37.32934791 64.15608315 -37.09237671 67.15606689 C-36.86230236 70.02905189 -36.61893084 72.90080759 -36.37213135 75.7723999 C-36.24992718 77.20544073 -36.13086165 78.63875298 -36.01507568 80.07232666 C-35.84757156 82.11587703 -35.66404271 84.15741546 -35.4765625 86.19921875 C-35.3729541 87.38862061 -35.2693457 88.57802246 -35.16259766 89.8034668 C-34.03776185 96.2637219 -31.69151846 100.97581795 -26.5625 105.25 C-21.81234347 107.83585055 -16.99898727 107.57307375 -11.73046875 107.5859375 C-10.30460197 107.5959227 -10.30460197 107.5959227 -8.84992981 107.60610962 C-6.84194874 107.61621679 -4.83393421 107.62092724 -2.82592773 107.62060547 C0.22924878 107.62497035 3.28297024 107.66128779 6.33789062 107.69921875 C8.29426593 107.70508915 10.25064805 107.70905705 12.20703125 107.7109375 C13.56523735 107.73249405 13.56523735 107.73249405 14.95088196 107.75448608 C20.89172259 107.71218478 25.58579718 106.84287953 30.4375 103.25 C33.9879667 99.12337673 35.01739212 95.76366855 35.5859375 90.40625 C35.65863861 89.76006714 35.73133972 89.11388428 35.8062439 88.44812012 C36.03364221 86.383476 36.23682522 84.31739723 36.4375 82.25 C36.58028942 80.88273236 36.72384206 79.51554421 36.86816406 78.1484375 C37.22406598 74.7112145 37.55316009 71.27207098 37.87011719 67.83105469 C38.06501053 65.72284297 38.26664465 63.6153438 38.46875 61.5078125 C38.59675291 60.14066227 38.72437146 58.773476 38.8515625 57.40625 C38.9645166 56.19775391 39.0774707 54.98925781 39.19384766 53.74414062 C39.89972381 43.62139569 38.81269626 35.11410137 32.234375 27.0703125 C25.8915269 20.6447316 18.90988709 17.36403933 9.87597656 17.17578125 C4.93192585 17.21875312 -0.01193997 17.33827074 -4.95288086 17.51733398 C-7.08717676 17.5900426 -9.22029418 17.63108956 -11.35546875 17.66796875 C-12.6189917 17.70688232 -13.88251465 17.7457959 -15.18432617 17.78588867 C-19.49898749 17.10144251 -20.92401658 15.66281759 -23.5625 12.25 C-24.19377485 8.25192592 -24.24167484 6.24264015 -21.9375 2.875 C-15.91228099 -1.24751827 -7.01131584 0.02947479 0 0 Z " fill="#000000" transform="translate(255.5625,10.75)"/>
<path d="M0 0 C5.40503676 1.6273229 9.80177201 4.20805214 14 8 C16.49370127 6.84906095 18.60875485 5.57651836 20.875 4 C27.27706682 -0.09732277 33.50848643 -0.91160384 41 0 C43.6875 1.5 43.6875 1.5 45 4 C45.49207479 6.91144249 45.33555508 8.98000432 45 12 C42.7494757 15.12859772 40.2881137 15.6296078 36.625 16.4375 C32.22250874 17.55993172 29.14433589 18.55137354 26 22 C24.15676154 25.76963054 23.7506917 28.82630076 23.7265625 33 C23.7059375 34.134375 23.6853125 35.26875 23.6640625 36.4375 C23.63802163 38.81242719 23.61979187 41.18745289 23.609375 43.5625 C23.58617187 44.696875 23.56296875 45.83125 23.5390625 47 C23.52673584 48.546875 23.52673584 48.546875 23.51416016 50.125 C22.87294641 53.71043832 21.50552874 55.4043822 19 58 C17 58.6640625 17 58.6640625 15 58.625 C14.01 58.64433594 14.01 58.64433594 13 58.6640625 C9.88696162 57.63043648 8.80301846 55.67762902 7 53 C6.50170898 50.14086914 6.50170898 50.14086914 6.49609375 47.03515625 C6.46805664 45.34036133 6.46805664 45.34036133 6.43945312 43.61132812 C6.43880859 42.44021484 6.43816406 41.26910156 6.4375 40.0625 C6.75006081 30.02828066 6.75006081 30.02828066 3 21 C-1.08078911 17.50218077 -4.76790134 16.38628114 -9.94921875 15.58984375 C-12.44827655 14.87106713 -13.45095317 14.07822431 -15 12 C-15.47243909 7.7480482 -15.67015459 5.27648494 -13.6875 1.5 C-9.25912872 -0.97164908 -4.94201266 -0.66874326 0 0 Z " fill="#000000" transform="translate(241,177)"/>
<path d="M0 0 C7.02866581 6.04792174 8.61552601 10.18825631 9.6875 19.3125 C9.79835938 20.15296875 9.90921875 20.9934375 10.0234375 21.859375 C11.94065619 38.12982555 11.94065619 38.12982555 9.38671875 42.578125 C6.7611616 45.25800402 4.33835875 45.18439969 0.6875 45.3125 C-1.96455096 44.52405242 -2.93058282 43.94022652 -4.36474609 41.58300781 C-5.47872771 38.91427287 -5.82798637 36.54379831 -6.1640625 33.671875 C-6.29296875 32.60195313 -6.421875 31.53203125 -6.5546875 30.4296875 C-6.68101562 29.31851563 -6.80734375 28.20734375 -6.9375 27.0625 C-7.0715625 25.93585938 -7.205625 24.80921875 -7.34375 23.6484375 C-7.67333514 20.87050562 -7.99599064 18.09194696 -8.3125 15.3125 C-9.6325 15.3125 -10.9525 15.3125 -12.3125 15.3125 C-12.43310791 16.37162598 -12.43310791 16.37162598 -12.55615234 17.45214844 C-12.92548589 20.6565516 -13.30636264 23.85948028 -13.6875 27.0625 C-13.87699219 28.72925781 -13.87699219 28.72925781 -14.0703125 30.4296875 C-14.19921875 31.49960937 -14.328125 32.56953125 -14.4609375 33.671875 C-14.57614746 34.65639648 -14.69135742 35.64091797 -14.81005859 36.65527344 C-15.45251534 40.05298931 -16.23388953 42.47358075 -19 44.625 C-22.41990423 45.64172829 -24.88359774 45.18531149 -28.3125 44.3125 C-30.25726822 42.2870732 -31.20848662 40.93210658 -31.67578125 38.1484375 C-31.55041908 32.07319399 -31.09640736 26.04515062 -30.5 20 C-30.43014893 19.2354248 -30.36029785 18.47084961 -30.28833008 17.68310547 C-29.59964389 11.41297751 -28.00376464 6.24955823 -23 2.0625 C-15.9384597 -3.54259761 -8.03449854 -4.09304643 0 0 Z " fill="#000000" transform="translate(266.3125,455.6875)"/>
<path d="M0 0 C2.69281086 1.83188816 3.0178973 3.07288609 3.80859375 6.29296875 C4.01613281 7.57816406 4.22367187 8.86335938 4.4375 10.1875 C6.08530429 19.40002396 8.98461672 27.61611819 16.88671875 33.375 C19.95556459 35.33906134 22.98929043 36.99515038 26.3125 38.5 C29.53492353 40.29856197 30.64621687 41.57572502 32 45 C31.93096951 48.45152438 31.64943318 50.25065402 29.375 52.875 C26.03401173 54.45757339 23.56086861 54.77215968 20 54 C7.22510599 49.1426935 -1.76608247 41.12780319 -8 29 C-11.28609052 21.27918549 -14.27963154 12.46751657 -12.3125 4.0625 C-8.92843511 -1.25531625 -6.03210628 -1.53544524 0 0 Z " fill="#000000" transform="translate(290,254)"/>
<path d="M0 0 C2.35164191 1.56776128 2.86687745 2.51273734 3.609375 5.23046875 C5.2329906 16.74190336 0.13792162 29.17271791 -6.625 38.25 C-13.24744528 46.02417489 -22.26774781 53.31536418 -32.6875 54.375 C-36.24927366 53.97178034 -37.66136583 53.69842405 -40 51 C-41.12562166 47.54809357 -41.37723764 45.8127066 -39.8359375 42.4921875 C-37.69988543 39.59261044 -35.90699542 38.56744452 -32.6875 37 C-23.94417781 32.46130574 -18.75280471 27.37491616 -14.8125 18.25 C-13.95492791 15.08081078 -13.95492791 15.08081078 -13.6171875 12.1015625 C-12.48880947 3.62846932 -12.48880947 3.62846932 -9.8125 0.1875 C-6.0710119 -1.39223942 -3.88245475 -1.07845965 0 0 Z " fill="#000000" transform="translate(231,254)"/>
<path d="M0 0 C2.64977544 2.76819582 3.37763077 4.71343614 3.40405273 8.50561523 C3.41673691 9.39010849 3.42942108 10.27460175 3.44248962 11.18589783 C3.43955399 12.13388748 3.43661835 13.08187714 3.43359375 14.05859375 C3.4388356 15.03989761 3.44407745 16.02120148 3.44947815 17.03224182 C3.45589648 19.10587621 3.45456381 21.17954701 3.44604492 23.25317383 C3.43753972 26.42269888 3.46629187 29.59041881 3.49804688 32.75976562 C3.49965913 34.77604113 3.49908088 36.79231982 3.49609375 38.80859375 C3.50732773 39.75455917 3.51856171 40.7005246 3.53013611 41.67515564 C3.48465749 45.9784384 3.39252872 48.36251164 1.09399414 52.09545898 C-1.15359806 54.13970135 -2.00727871 54.68345159 -5 54.625 C-5.99 54.64433594 -5.99 54.64433594 -7 54.6640625 C-10.26199832 53.58097712 -11.20552358 51.914329 -13 49 C-13.58166884 45.60153931 -13.5369564 42.24946302 -13.49609375 38.80859375 C-13.49754898 37.82633316 -13.49900421 36.84407257 -13.50050354 35.83204651 C-13.49884681 33.76015245 -13.48731087 31.68824581 -13.46655273 29.61645508 C-13.43756803 26.44494419 -13.44595483 23.27510235 -13.45898438 20.10351562 C-13.45274759 18.08853354 -13.44435712 16.07355674 -13.43359375 14.05859375 C-13.43652939 13.1106041 -13.43946503 12.16261444 -13.44248962 11.18589783 C-13.42980545 10.30140457 -13.41712128 9.41691132 -13.40405273 8.50561523 C-13.39864975 7.73015854 -13.39324677 6.95470184 -13.38768005 6.15574646 C-12.89316816 3.40594737 -11.89498047 2.03024551 -10 0 C-6.20519658 -1.26493447 -3.87641726 -0.89988258 0 0 Z " fill="#000000" transform="translate(261,301)"/>
</svg>
