<?xml version="1.0" encoding="UTF-8"?>
<svg version="1.1" xmlns="http://www.w3.org/2000/svg" width="512" height="512">
<path d="M0 0 C7.06994183 6.38049715 10.86636072 14.8593907 14.953125 23.30078125 C16.17973879 25.80528682 17.4119359 28.30702765 18.64453125 30.80859375 C18.94732498 31.42492172 19.25011871 32.04124969 19.56208801 32.67625427 C22.58959539 38.81857293 25.7918608 44.86421779 29.09472656 50.86254883 C36.1138035 63.86497579 36.1138035 63.86497579 35.015625 70.73828125 C34.89960938 71.47433594 34.78359375 72.21039063 34.6640625 72.96875 C34.09948981 75.44234391 33.3081551 77.70455238 32.203125 79.98828125 C32.65042969 80.37757812 33.09773438 80.766875 33.55859375 81.16796875 C40.04308293 87.16854082 44.59593218 94.57791773 45.44140625 103.50390625 C45.61551331 109.91837671 45.04302211 114.71929622 41.203125 119.98828125 C35.83834168 125.21894499 30.77457889 125.34937463 23.54296875 125.26171875 C15.02060568 124.56398142 7.67977718 121.33369854 0.203125 117.36328125 C-5.5561405 114.33950671 -10.4047358 113.19774602 -16.828125 112.52734375 C-19.99957145 111.95147584 -21.91311573 110.96499524 -24.609375 109.23828125 C-27.51313002 107.37420617 -27.51313002 107.37420617 -30.84375 107.109375 C-32.18581564 107.48650585 -33.51765572 107.90214656 -34.8359375 108.35546875 C-41.28075042 110.43526894 -47.83723063 108.73258484 -53.796875 105.98828125 C-54.663125 105.29347656 -55.529375 104.59867187 -56.421875 103.8828125 C-61.10782353 101.25239 -64.91072692 101.65531378 -70.171875 101.92578125 C-77.9204784 102.2945003 -84.40249262 102.35702979 -90.85546875 97.41015625 C-94.28504265 93.25191935 -95.57585143 90.40335881 -95.796875 84.98828125 C-105.8897588 86.34543873 -111.56411705 88.90133366 -117.796875 96.98828125 C-134.13779076 118.54104784 -141.70588573 143.87531024 -147.68325806 169.91983032 C-148.61086767 173.95814559 -149.56233875 177.99073143 -150.51237488 182.02381897 C-150.97856897 184.00350991 -151.4437693 185.98343517 -151.90791321 187.96360779 C-156.85479022 209.06421576 -162.21895228 229.45882891 -171.796875 248.98828125 C-170.971875 248.29863281 -170.146875 247.60898437 -169.296875 246.8984375 C-143.77395482 225.9700923 -112.31127081 214.37035954 -79.078125 217.453125 C-64.61233252 219.11373893 -49.38347462 222.46076491 -36.66015625 229.796875 C-33.91139389 231.25903071 -33.91139389 231.25903071 -31.3125 230.45703125 C-28.2347306 228.66007272 -25.39060105 226.62669782 -22.546875 224.48828125 C-3.648273 210.68834093 16.97693513 201.09352106 39.203125 193.98828125 C39.94111328 193.74980469 40.67910156 193.51132813 41.43945312 193.265625 C60.70037057 187.15381983 81.54548535 183.80499126 101.76171875 183.85546875 C102.63151871 183.85451202 103.50131866 183.8535553 104.3974762 183.85256958 C106.22177198 183.85189455 108.04607027 183.85370113 109.87036133 183.85791016 C112.63042715 183.86326148 115.3903298 183.85794528 118.15039062 183.8515625 C123.16913373 183.84759901 128.18524968 183.89728895 133.203125 183.98828125 C134.96487061 184.01583496 134.96487061 184.01583496 136.76220703 184.04394531 C141.16086514 184.25477424 143.55925756 184.56393262 147.28515625 187.01953125 C149.75552803 190.84332464 150.3555591 194.02066806 150.890625 198.48828125 C150.99439453 199.19597656 151.09816406 199.90367187 151.20507812 200.6328125 C151.59061182 203.41332827 151.89728177 206.19779466 152.203125 208.98828125 C152.28430573 209.67331726 152.36548645 210.35835327 152.4491272 211.06414795 C154.12902334 225.38835597 154.54524413 239.59950689 154.51879883 254.01513672 C154.51564683 257.58852944 154.53917851 261.16108413 154.56445312 264.734375 C154.74628832 330.75046343 136.0125201 397.70783203 88.953125 445.67578125 C64.3800642 470.12992978 64.3800642 470.12992978 52.203125 471.80078125 C47.65233307 471.42892666 45.29116826 469.0002354 42.3359375 465.703125 C26.18868792 445.14939156 17.8247217 422.077901 11.203125 396.98828125 C10.15898437 397.59414063 9.11484375 398.2 8.0390625 398.82421875 C-10.09547934 409.20504126 -28.85923707 417.70274536 -48.796875 423.98828125 C-49.9408374 424.34962158 -49.9408374 424.34962158 -51.10791016 424.71826172 C-62.51369242 428.25206783 -73.95413658 430.50997705 -85.796875 431.98828125 C-86.92867188 432.13265625 -88.06046875 432.27703125 -89.2265625 432.42578125 C-135.27583827 436.9293779 -179.03150612 419.74220021 -221.52734375 404.5078125 C-242.92841687 396.84860324 -264.37876117 389.87005163 -286.515625 384.609375 C-311.79143467 378.57336075 -337.30541007 358.65547157 -351.796875 336.98828125 C-364.26204714 315.34648742 -357.36593537 286.09306968 -351.484375 263.11328125 C-342.22603528 229.09627934 -324.86066719 199.42901498 -301.796875 172.98828125 C-301.21679688 172.30765625 -300.63671875 171.62703125 -300.0390625 170.92578125 C-298.31893355 168.92040479 -296.56604837 166.95064022 -294.796875 164.98828125 C-294.33506836 164.47604004 -293.87326172 163.96379883 -293.39746094 163.43603516 C-284.91725522 154.07630346 -276.02674373 145.29339358 -266.72216797 136.75634766 C-264.86697563 135.0526572 -263.01999563 133.34056004 -261.17578125 131.625 C-256.0990069 126.90765608 -250.995143 122.23036156 -245.75390625 117.6953125 C-243.4112835 115.65194694 -241.10414078 113.57147266 -238.796875 111.48828125 C-235.81624779 108.79844694 -232.82442267 106.12517761 -229.796875 103.48828125 C-225.08138707 99.37517102 -220.43100992 95.1927175 -215.796875 90.98828125 C-214.84167969 90.1271875 -213.88648438 89.26609375 -212.90234375 88.37890625 C-200.56310826 77.18149869 -188.04528642 65.70007726 -177.78515625 52.53125 C-175.60711481 49.74558206 -173.29957056 47.09828258 -170.984375 44.42578125 C-163.02283405 34.90169488 -156.42743727 24.32743965 -149.984375 13.73828125 C-143.94573969 4.21357387 -135.5453145 -0.27330234 -124.796875 -3.01171875 C-122.43509937 -3.2192904 -120.0647042 -3.34138663 -117.69433594 -3.390625 C-116.68519638 -3.41550491 -116.68519638 -3.41550491 -115.65567017 -3.44088745 C-114.20500389 -3.47546403 -112.7542329 -3.50585713 -111.30339813 -3.53244019 C-108.98701063 -3.57503219 -106.67112302 -3.62904651 -104.3550415 -3.68579102 C-99.41918876 -3.80461218 -94.48308132 -3.90881585 -89.546875 -4.01171875 C-83.08308696 -4.14774149 -76.61952743 -4.29065263 -70.15625 -4.44921875 C-68.99025426 -4.47753249 -68.99025426 -4.47753249 -67.80070305 -4.50641823 C-57.6590017 -4.76241391 -47.61207432 -5.24954482 -37.54614258 -6.57885742 C-23.86549396 -8.15831891 -11.81520319 -7.64380512 0 0 Z M-36.55291748 9.65499878 C-47.18186848 10.806273 -57.78833882 11.2491618 -68.46875 11.48046875 C-69.19983475 11.49707802 -69.93091949 11.51368729 -70.68415833 11.53079987 C-77.52185661 11.68592864 -84.35972922 11.82785955 -91.19824219 11.94189453 C-94.9847512 12.0058758 -98.77049352 12.08840178 -102.5563736 12.18228531 C-103.97700527 12.21394072 -105.39780896 12.23875706 -106.81868744 12.2560997 C-116.35884077 12.37460793 -124.78726221 13.02719207 -132.484375 19.11328125 C-136.25926342 23.80638577 -139.6297003 28.7473863 -142.9765625 33.75244141 C-152.3534336 47.77042689 -162.61629475 60.8254196 -174.140625 73.14453125 C-175.89216713 75.01971165 -177.62208049 76.91536396 -179.328125 78.83203125 C-186.63517209 87.01944546 -194.53618619 94.47707075 -202.58300781 101.93164062 C-204.78554601 103.97775683 -206.97668122 106.03535261 -209.1640625 108.09765625 C-209.86893799 108.76176514 -210.57381348 109.42587402 -211.30004883 110.11010742 C-212.6233109 111.357127 -213.94610465 112.60464383 -215.26831055 113.8527832 C-219.06558892 117.41992349 -222.93872802 120.88090108 -226.87084961 124.29858398 C-229.73054981 126.80739183 -232.51506754 129.39377753 -235.296875 131.98828125 C-238.73041966 135.19063961 -242.19174819 138.3479286 -245.734375 141.4296875 C-255.62339068 150.04597647 -265.06893888 159.17143086 -274.359375 168.42578125 C-275.00132812 169.06314209 -275.64328125 169.70050293 -276.3046875 170.35717773 C-280.66975568 174.73648479 -284.78497575 179.28433375 -288.796875 183.98828125 C-289.31628662 184.59567139 -289.83569824 185.20306152 -290.37084961 185.82885742 C-319.91480677 220.70419662 -340.29956753 263.31469721 -341.296875 309.61328125 C-341.3275708 310.40597412 -341.3582666 311.19866699 -341.38989258 312.01538086 C-341.39304745 322.02789385 -336.31220232 329.07164047 -329.46484375 335.96435547 C-328.66691406 336.73537598 -327.86898438 337.50639648 -327.046875 338.30078125 C-326.21285156 339.11820801 -325.37882812 339.93563477 -324.51953125 340.77783203 C-319.1711712 345.93098907 -313.6631104 350.80774503 -307.796875 355.36328125 C-307.15266602 355.86770752 -306.50845703 356.37213379 -305.84472656 356.8918457 C-296.6170949 363.76570489 -286.55827714 366.77905107 -275.484375 369.36328125 C-261.95659379 372.66476051 -248.71430314 376.71681075 -235.484375 381.05078125 C-234.51274414 381.36899841 -233.54111328 381.68721558 -232.54003906 382.01507568 C-218.09902674 386.76388745 -203.77747829 391.81383743 -189.484375 396.98828125 C-143.82723238 413.50007449 -101.44879722 421.78826488 -53.796875 407.98828125 C-52.5269873 407.62355713 -52.5269873 407.62355713 -51.23144531 407.25146484 C-29.84662018 400.90486181 -9.38605411 389.94455602 9.89453125 378.87890625 C16.6872879 374.99733102 16.6872879 374.99733102 20.765625 374.92578125 C24.203125 375.98828125 24.203125 375.98828125 25.7734375 378.84765625 C27.69666607 383.83509778 28.53405725 389.06533804 29.515625 394.30078125 C33.62471753 414.84156738 40.0389885 435.00239086 54.203125 450.98828125 C60.29957762 447.23321986 65.6036102 443.01066822 70.85546875 438.1484375 C72.82312582 436.33793108 74.82519101 434.62156262 76.890625 432.92578125 C80.7528109 429.62046866 83.98827707 425.91753983 87.203125 421.98828125 C87.95464844 421.07433594 88.70617187 420.16039062 89.48046875 419.21875 C126.77629268 372.37802326 138.45083903 311.45822152 138.390625 252.86328125 C138.39101776 252.0464386 138.39141052 251.22959595 138.39181519 250.38800049 C138.9800289 224.91978375 138.9800289 224.91978375 135.203125 199.98828125 C80.86794901 199.1558363 31.11250604 207.51534419 -13.796875 239.98828125 C-10.35634716 243.58059709 -6.8403512 246.55882401 -2.796875 249.48828125 C7.88918611 257.23022349 7.88918611 257.23022349 8.828125 262.48828125 C8.203125 265.98828125 8.203125 265.98828125 6.140625 268.98828125 C3.203125 270.98828125 3.203125 270.98828125 0.02734375 270.9609375 C-4.85174274 269.71998496 -7.95683557 267.43540594 -11.921875 264.42578125 C-13.43158396 263.32276474 -14.94332008 262.22251767 -16.45703125 261.125 C-17.1958252 260.58665527 -17.93461914 260.04831055 -18.69580078 259.49365234 C-36.00505439 247.09197238 -55.80857638 237.7166374 -76.796875 233.98828125 C-77.53550781 233.85550781 -78.27414062 233.72273437 -79.03515625 233.5859375 C-103.465431 229.89357713 -127.46289498 238.06065842 -147.046875 252.36328125 C-150.99772657 255.42677578 -154.66071143 258.68489846 -158.296875 262.11328125 C-166.21563198 269.45011228 -176.13723139 275.99694158 -187.1171875 277.25390625 C-193.69529376 278.057662 -197.69148251 280.87896494 -202.70483398 284.96435547 C-211.0560673 291.73601889 -220.45758608 296.54128056 -230.234375 300.92578125 C-230.88446533 301.22057373 -231.53455566 301.51536621 -232.2043457 301.8190918 C-237.30188444 304.02189362 -242.26921253 305.8674682 -247.671875 303.98828125 C-249.796875 301.98828125 -249.796875 301.98828125 -250.734375 298.55078125 C-250.79647502 295.01107987 -250.66010956 293.85331837 -248.796875 290.98828125 C-247.13964844 289.92675781 -247.13964844 289.92675781 -245.15625 289.12890625 C-244.42237061 288.82235107 -243.68849121 288.5157959 -242.93237305 288.19995117 C-242.14515869 287.8826001 -241.35794434 287.56524902 -240.546875 287.23828125 C-211.35765381 274.79997319 -191.96206784 255.26123995 -179.90673828 225.81396484 C-173.2468074 208.5391755 -169.57144221 190.18820308 -165.32287598 172.21240234 C-157.22569754 137.97462303 -147.93081078 107.1920761 -124.796875 79.98828125 C-126.25289857 76.73796602 -128.11749635 74.31594757 -130.421875 71.61328125 C-132.63132781 68.79368666 -133.73231028 67.26806169 -134.546875 63.73828125 C-133.50135084 59.90469265 -131.97560486 58.33777723 -128.796875 55.98828125 C-125.796875 55.36328125 -125.796875 55.36328125 -122.796875 55.98828125 C-120.73314046 57.61754536 -119.42551985 58.96911666 -117.796875 60.98828125 C-117.10722656 61.83261719 -116.41757813 62.67695312 -115.70703125 63.546875 C-113.71712376 66.01240185 -111.74940748 68.49310947 -109.796875 70.98828125 C-108.81460938 70.76108398 -108.81460938 70.76108398 -107.8125 70.52929688 C-104.80926877 69.83999592 -101.8031766 69.16405986 -98.796875 68.48828125 C-97.76691406 68.24980469 -96.73695313 68.01132813 -95.67578125 67.765625 C-81.37100426 64.57666198 -81.37100426 64.57666198 -76.859375 67.05078125 C-74.86066145 70.69549419 -74.30093873 74.18143064 -75.41015625 78.22265625 C-76.13899042 80.17081962 -76.96140559 82.083411 -77.796875 83.98828125 C-73.80126892 86.81850222 -70.36950177 85.75038571 -65.796875 84.98828125 C-64.43063528 80.59770849 -65.5778705 77.12090028 -66.734375 72.80078125 C-69.13134853 63.1763386 -70.23907583 55.248837 -65.796875 45.98828125 C-63.71291742 43.07074063 -62.39259813 41.30992407 -58.80078125 40.5859375 C-55.87583663 40.45176573 -53.43266948 40.67038401 -50.796875 41.98828125 C-49.19193962 45.19815202 -49.1496355 48.5236463 -49.796875 51.98828125 C-50.31378906 52.7771875 -50.83070313 53.56609375 -51.36328125 54.37890625 C-53.17876304 57.68337991 -52.85345517 59.21397084 -52.109375 62.86328125 C-51.90054687 63.92417969 -51.69171875 64.98507813 -51.4765625 66.078125 C-50.97753731 68.21475583 -50.38231609 70.32950126 -49.734375 72.42578125 C-48.79161207 76.00828038 -48.69955732 78.98650454 -48.609375 82.67578125 C-48.4203606 87.03958617 -48.4203606 87.03958617 -46.42578125 90.75 C-43.17129419 92.81576573 -40.98813512 92.99476464 -37.109375 92.86328125 C-34.36412125 92.13811988 -32.16212619 91.53479164 -29.796875 89.98828125 C-27.60244656 85.59942437 -28.66219602 80.97105489 -30.109375 76.4921875 C-30.66969965 74.8443108 -31.23229168 73.19720374 -31.796875 71.55078125 C-35.11386392 61.20322839 -37.02865533 50.74612225 -33.484375 40.11328125 C-31.796875 36.98828125 -31.796875 36.98828125 -28.796875 34.98828125 C-25.59739887 34.64791145 -23.42068914 34.74203883 -20.421875 35.92578125 C-17.8084023 39.24288122 -18.34720384 42.91912583 -18.796875 46.98828125 C-19.126875 47.97828125 -19.456875 48.96828125 -19.796875 49.98828125 C-20.27324319 56.01471691 -18.82470309 60.59395722 -16.859375 66.17578125 C-13.6369295 75.83659268 -11.72344371 84.85150605 -13.796875 94.98828125 C-11.60172627 95.94759695 -11.60172627 95.94759695 -8.796875 95.98828125 C-5.84586955 94.37358015 -4.59902856 93.66167461 -2.796875 90.98828125 C-0.26770067 81.8690048 -5.73079823 70.39943469 -8.9453125 61.98046875 C-9.97915156 58.34780489 -10.06199719 55.1362675 -10.046875 51.36328125 C-10.05203125 50.07164063 -10.0571875 48.78 -10.0625 47.44921875 C-9.66786973 42.30741843 -9.66786973 42.30741843 -7.796875 39.98828125 C-5.4140625 39.16015625 -5.4140625 39.16015625 -2.671875 38.73828125 C-1.76179688 38.58875 -0.85171875 38.43921875 0.0859375 38.28515625 C1.13394531 38.13820313 1.13394531 38.13820313 2.203125 37.98828125 C-4.59827504 21.7118752 -4.59827504 21.7118752 -16.796875 9.98828125 C-23.08729608 8.00183249 -30.09072752 8.95027776 -36.55291748 9.65499878 Z M6.203125 46.98828125 C5.03328511 50.4179602 5.38987087 52.5316756 6.41796875 55.97265625 C6.69189453 56.90722656 6.96582031 57.84179688 7.24804688 58.8046875 C7.54259766 59.77277344 7.83714844 60.74085937 8.140625 61.73828125 C8.57665039 63.21361328 8.57665039 63.21361328 9.02148438 64.71875 C9.73985269 67.14471513 10.46733322 69.56755483 11.203125 71.98828125 C14.1418647 72.26903196 14.1418647 72.26903196 15.953125 70.80078125 C17.42298301 69.07083381 17.42298301 69.07083381 17.06640625 66.92578125 C15.82395865 62.69808623 13.75012827 59.02974358 11.640625 55.17578125 C11.21587891 54.38751953 10.79113281 53.59925781 10.35351562 52.78710938 C9.30915946 50.85094345 8.2589173 48.91822758 7.203125 46.98828125 C6.873125 46.98828125 6.543125 46.98828125 6.203125 46.98828125 Z M16.2578125 94.66796875 C15.53851563 95.39242187 14.81921875 96.116875 14.078125 96.86328125 C13.35367187 97.58257812 12.62921875 98.301875 11.8828125 99.04296875 C9.98527809 100.81222263 9.98527809 100.81222263 10.203125 102.98828125 C19.33298087 107.35917578 19.33298087 107.35917578 29.203125 107.98828125 C28.62756646 102.70253954 27.82980777 99.00338356 23.703125 95.42578125 C20.05887643 92.5176566 20.05887643 92.5176566 16.2578125 94.66796875 Z " fill="#000000" transform="translate(357.796875,24.01171875)"/>
<path d="M0 0 C3.18649234 3.6201181 5.71167862 7.60352822 8.25 11.6875 C12.12032181 17.80469187 16.32871583 23.46258189 21 29 C21.515625 29.66128906 22.03125 30.32257813 22.5625 31.00390625 C26.23143318 35.54421106 30.44029389 39.14497113 35 42.75 C35.58152832 43.21011475 36.16305664 43.67022949 36.76220703 44.14428711 C39.67827711 46.39299583 42.57767432 48.3758702 45.8125 50.140625 C49 52 49 52 51 55 C51.55377603 59.90487343 51.75639171 61.89979388 48.9375 66 C46 68 46 68 42.875 68.75 C33.81035345 66.99555228 26.832753 60.26307171 20.26953125 54.11328125 C18.37857473 52.35251106 16.45494937 50.73432168 14.4375 49.125 C6.68788646 42.51877207 0.86534845 33.59515513 -5.15234375 25.43359375 C-6.92495892 22.9846429 -6.92495892 22.9846429 -9 21 C-9.7892688 21.39940796 -9.7892688 21.39940796 -10.59448242 21.80688477 C-45.9464278 39.54584278 -85.62422405 49.36351246 -125 40 C-125.67289062 39.8448291 -126.34578125 39.6896582 -127.0390625 39.52978516 C-139.42725696 36.59715515 -139.42725696 36.59715515 -143 32 C-143.72942808 29.25391782 -143.55320804 26.77744656 -143 24 C-140.90807363 20.73659487 -139.57977327 20.1288385 -135.80078125 19.2890625 C-131.59915844 18.96951462 -128.77760454 19.62022794 -124.75 20.8125 C-88.11952899 30.77953578 -49.79699464 21.57649656 -17 4 C-4.97163342 -2.18266833 -4.97163342 -2.18266833 0 0 Z " fill="#000000" transform="translate(392,339)"/>
<path d="M0 0 C3.27924856 0.90006246 4.30943309 2.71327391 6.03515625 5.55859375 C6.28515625 8.65234375 6.28515625 8.65234375 6.03515625 12.05859375 C5.73145996 23.67193981 9.09759506 33.94361546 17.03515625 42.55859375 C23.08440387 47.98692326 29.04240639 51.11678371 36.703125 53.6484375 C40.07417253 54.96410597 41.53620152 56.26089335 43.03515625 59.55859375 C43.30735466 63.4147379 42.87509319 66.43867784 40.53515625 69.55859375 C35.11337522 71.72730616 29.91481713 71.18678781 24.59765625 68.93359375 C23.06305491 68.16895732 21.54238777 67.37585949 20.03515625 66.55859375 C19.23078125 66.13449219 18.42640625 65.71039063 17.59765625 65.2734375 C2.95443709 57.05950675 -6.13237152 45.58889142 -10.96484375 29.55859375 C-11.15820312 28.9553125 -11.3515625 28.35203125 -11.55078125 27.73046875 C-12.18274014 24.4156655 -12.19000845 21.10817275 -12.21484375 17.74609375 C-12.23546875 17.05966797 -12.25609375 16.37324219 -12.27734375 15.66601562 C-12.31585243 10.57805646 -11.38163999 7.05902974 -8.96484375 2.55859375 C-5.77392735 0.43131615 -3.76324601 0.22477963 0 0 Z " fill="#000000" transform="translate(48.96484375,302.44140625)"/>
</svg>
