<?xml version="1.0" encoding="UTF-8"?>
<svg version="1.1" xmlns="http://www.w3.org/2000/svg" width="512" height="512">
<path d="M0 0 C3.5 0.25 3.5 0.25 5.5 2.25 C5.75537109 4.52148437 5.75537109 4.52148437 5.7734375 7.34375 C5.7940625 8.375 5.8146875 9.40625 5.8359375 10.46875 C5.86160624 12.62492427 5.8800549 14.78119885 5.890625 16.9375 C6.05169453 24.16773204 7.31717279 29.7568546 10.5 36.25 C10.79052246 36.96091797 11.08104492 37.67183594 11.38037109 38.40429688 C12.79073996 40.72928349 14.02187378 41.19953313 16.5 42.25 C17.88587707 43.05890657 19.26303592 43.8828689 20.6328125 44.71875 C21.42905029 45.20214844 22.22528809 45.68554688 23.0456543 46.18359375 C23.89683838 46.70050781 24.74802246 47.21742187 25.625 47.75 C39.25791852 55.95557802 53.00527344 63.64742166 67.3125 70.625 C68.83266724 71.37523437 68.83266724 71.37523437 70.38354492 72.140625 C81.5691214 77.50984682 92.61178434 80.53286263 104.875 82.1875 C129.17624627 85.82314786 151.5918982 95.33297717 166.66796875 115.55078125 C172.28892702 123.83240634 176.66992103 131.90189963 179.875 141.375 C180.1136377 142.07818359 180.35227539 142.78136719 180.59814453 143.50585938 C184.12370163 154.6102171 184.89119444 165.85383644 185.1875 177.4375 C185.20878967 178.14132813 185.23007935 178.84515625 185.25201416 179.5703125 C185.56092169 189.94821064 185.40215756 200.25328778 184.96408081 210.62435913 C184.49877918 221.72735829 184.32619302 232.07321229 186.96582031 242.93994141 C188.14267444 248.02924387 189.04656203 253.17761176 190 258.3125 C190.21648193 259.47313965 190.43296387 260.6337793 190.65600586 261.82958984 C195.3462161 287.42062718 197.16045322 313.28699606 198.3125 339.25 C198.37775879 340.50321045 198.44301758 341.7564209 198.51025391 343.04760742 C198.55456543 344.20752197 198.59887695 345.36743652 198.64453125 346.5625 C198.68940674 347.58988281 198.73428223 348.61726563 198.78051758 349.67578125 C198.5 352.25 198.5 352.25 197.22143555 354.125 C194.35293785 355.99963302 191.70127546 354.91441566 188.5 354.25 C186.30703317 348.83537777 186.04825534 343.75742894 185.7890625 338 C185.68045687 335.9417083 185.57138928 333.88344094 185.46191406 331.82519531 C185.40749146 330.75192993 185.35306885 329.67866455 185.29699707 328.57287598 C184.13159175 306.05797308 182.96072475 283.4945129 177.6875 261.49609375 C172.11454483 237.59723265 171.9315621 214.38174984 172.40722656 189.97924805 C172.89593293 163.58125593 170.94285581 137.71480812 151.78125 117.53125 C150.65203125 116.40203125 150.65203125 116.40203125 149.5 115.25 C148.8503125 114.6003125 148.200625 113.950625 147.53125 113.28125 C134.10065005 100.73134513 115.99825897 96.29047937 98.33203125 93.61328125 C68.06621366 88.91794067 19.81343405 68.96821052 0.72265625 44.2265625 C-5.14670008 34.7380823 -5.68182194 26.5950106 -5.6875 15.625 C-5.69974609 14.37203125 -5.71199219 13.1190625 -5.72460938 11.828125 C-5.72654297 10.63445312 -5.72847656 9.44078125 -5.73046875 8.2109375 C-5.73457764 7.11571777 -5.73868652 6.02049805 -5.74291992 4.89208984 C-5.35288638 0.64993607 -4.14619667 0.29615691 0 0 Z " fill="#000000" transform="translate(309.5,58.75)"/>
<path d="M0 0 C3.30947908 0.55157985 4.03522905 0.88891338 6 3.5 C6.38818359 5.77734375 6.38818359 5.77734375 6.3984375 8.4375 C6.40230469 9.41589844 6.40617188 10.39429687 6.41015625 11.40234375 C6.39275391 12.93568359 6.39275391 12.93568359 6.375 14.5 C6.38660156 15.49128906 6.39820313 16.48257813 6.41015625 17.50390625 C6.36339357 29.45956557 3.65263334 39.83155084 -4.95117188 48.45581055 C-10.25564952 53.23624739 -15.68780243 57.07659516 -21.875 60.625 C-22.81118164 61.16922607 -23.74736328 61.71345215 -24.71191406 62.27416992 C-50.2361091 76.93909409 -75.23735179 90.6673314 -104.5625 94.9375 C-124.04843596 97.79551579 -142.45714012 105.61294311 -155.28125 121.12890625 C-169.72681013 141.05721307 -173.41110583 163.68867077 -172.8515625 187.87109375 C-172.41059153 214.7403397 -172.3005344 240.32341783 -178.66407776 266.60554504 C-180.41652474 273.957005 -181.4263732 281.37595319 -182.3125 288.875 C-182.39187805 289.53723572 -182.4712561 290.19947144 -182.55303955 290.8817749 C-184.10746577 304.1394976 -184.79894826 317.45457085 -185.31762695 330.78857422 C-186.03177241 348.53410547 -186.03177241 348.53410547 -188 353.5 C-191 355.5 -191 355.5 -194.125 355.1875 C-197 354.5 -197 354.5 -198 353.5 C-199.45642291 323.76947721 -197.29487261 290.71243421 -190.18359375 261.828125 C-184.45529677 238.12986818 -184.44077328 215.0467031 -184.90722656 190.81103516 C-185.50832322 157.92898355 -181.08671139 130.59599794 -157.625 105.8125 C-142.87828818 91.66228439 -124.34869526 85.52141779 -104.625 82.5625 C-76.96129506 78.33562334 -52.84807875 64.66606674 -29 50.5 C-28.24992676 50.05462891 -27.49985352 49.60925781 -26.72705078 49.15039062 C-18.1732603 44.01453318 -9.61188843 38.85496812 -7 28.5 C-6.49058557 23.60052475 -6.51604303 18.69473765 -6.47265625 13.7734375 C-6.19061411 1.03176902 -6.19061411 1.03176902 0 0 Z " fill="#000000" transform="translate(203,58.5)"/>
<path d="M0 0 C3.5625 0.1875 3.5625 0.1875 5.5625 2.1875 C6.08256068 9.46834949 4.80096115 15.99679403 3.125 23.0625 C2.86420654 24.17858643 2.60341309 25.29467285 2.3347168 26.44458008 C-1.01471504 40.24908597 -4.92965298 54.67385416 -11.02880859 67.54589844 C-12.55694386 71.49627377 -12.933766 74.95502669 -13.02734375 79.12890625 C-13.0580043 79.89130112 -13.08866486 80.65369598 -13.12025452 81.43919373 C-13.24906472 84.65004307 -13.34783478 87.86157584 -13.44604492 91.07348633 C-13.7948874 101.76116195 -14.76788075 112.2081972 -16.27734375 122.796875 C-18.02692703 135.15423902 -19.26712374 147.5110615 -20.2890625 159.94921875 C-20.39965972 161.28894336 -20.39965972 161.28894336 -20.51249123 162.65573311 C-21.11731065 170.00882449 -21.70403488 177.36333723 -22.28839111 184.71807861 C-22.73052421 190.27674734 -23.17950931 195.83477367 -23.63822556 201.39209938 C-23.84782884 203.96587218 -24.04722195 206.54030483 -24.24624634 209.11491394 C-24.37408809 210.67520386 -24.50242691 212.23545316 -24.63134766 213.7956543 C-24.68332809 214.50449768 -24.73530853 215.21334106 -24.78886414 215.94366455 C-25.09139394 219.46743465 -25.42785543 221.17303315 -27.4375 224.1875 C-30.9375 224.5 -30.9375 224.5 -34.4375 224.1875 C-36.4375 222.1875 -36.4375 222.1875 -36.68417358 219.1499939 C-36.60189664 208.53362163 -35.92742925 198.04805043 -34.9765625 187.4765625 C-34.82396685 185.72980568 -34.67182574 183.9830091 -34.52011108 182.23617554 C-34.20338036 178.60707661 -33.88185382 174.97844602 -33.55664062 171.35009766 C-33.14236998 166.72477358 -32.73937313 162.09854957 -32.33982277 157.47193336 C-32.02826273 153.87685267 -31.71122723 150.28227089 -31.39252853 146.68781662 C-31.24188269 144.98249334 -31.09278158 143.27703279 -30.94533157 141.57143021 C-29.55528963 125.56415298 -29.55528963 125.56415298 -27.85473633 118.0557251 C-25.98072535 109.66461888 -26.30115284 100.73192223 -26.4375 92.1875 C-26.94796875 92.56261719 -27.4584375 92.93773437 -27.984375 93.32421875 C-51.82053504 110.10250871 -84.77401355 111.29052337 -112.82348633 107.11010742 C-127.4637342 104.51716932 -142.01187324 100.38502758 -155.94921875 95.21875 C-157.13777466 94.77885742 -157.13777466 94.77885742 -158.3503418 94.33007812 C-160.84419474 92.9648621 -161.99062717 91.62004219 -163.4375 89.1875 C-163.3125 86.5625 -163.3125 86.5625 -162.4375 84.1875 C-159.4375 82.1875 -159.4375 82.1875 -156.3359375 82.359375 C-151.73245781 83.33726848 -147.48037003 84.83995912 -143.0625 86.4375 C-109.49523725 98.11910042 -70.91067064 101.9075909 -38.1328125 86.07421875 C-20.15532302 75.08797518 -14.05238459 40.51707537 -9.47851562 21.7097168 C-9.02838184 19.83518043 -8.57914536 17.96042834 -8.13085938 16.08544922 C-7.36885775 12.90060441 -6.60454915 9.7165213 -5.828125 6.53515625 C-5.58610352 5.53621338 -5.34408203 4.53727051 -5.09472656 3.50805664 C-4.06771134 -0.11816166 -3.9995188 0.21815557 0 0 Z " fill="#000000" transform="translate(435.4375,271.8125)"/>
<path d="M0 0 C1.19625 0.12375 2.3925 0.2475 3.625 0.375 C6.11338645 3.6860548 7.17186509 6.83066627 8.01953125 10.84765625 C8.24962891 11.90235107 8.47972656 12.9570459 8.71679688 14.04370117 C8.95462891 15.16365479 9.19246094 16.2836084 9.4375 17.4375 C14.00227373 37.99185239 19.2821444 59.35987641 30.625 77.375 C31.30369141 78.46748047 31.30369141 78.46748047 31.99609375 79.58203125 C39.48336787 89.75305557 54.81137347 93.41610785 66.625 95.375 C94.83306594 99.63169008 123.70790464 94.37034432 150.10839844 84.25463867 C153.7305985 82.89385413 156.74282641 81.94207022 160.625 82.375 C162.4375 83.5 162.4375 83.5 163.625 85.375 C164.0625 88.375 164.0625 88.375 163.625 91.375 C159.31837922 95.32718915 153.77190433 96.53063546 148.3125 98.25 C147.2097876 98.60006104 146.1070752 98.95012207 144.97094727 99.31079102 C116.05105214 108.26616389 81.12205731 114.25681095 51.625 104.375 C50.91730469 104.15005859 50.20960937 103.92511719 49.48046875 103.69335938 C40.92856219 100.93639483 33.09582582 97.84582582 26.625 91.375 C26.90525072 95.85495648 27.20126744 100.33374098 27.5 104.8125 C27.57863281 106.07255859 27.65726563 107.33261719 27.73828125 108.63085938 C27.82207031 109.86513672 27.90585938 111.09941406 27.9921875 112.37109375 C28.06550293 113.49700928 28.13881836 114.6229248 28.21435547 115.78295898 C28.5259526 118.50860027 28.95796616 120.92403366 29.59631348 123.57035828 C30.59518507 127.99034657 31.1327894 132.32971314 31.49462891 136.84130859 C31.56319595 137.63449997 31.631763 138.42769135 31.70240784 139.24491882 C31.92486951 141.83728348 32.13847463 144.43028686 32.3515625 147.0234375 C32.50524032 148.84513719 32.65933073 150.66680212 32.81381226 152.48843384 C33.1353202 156.29568458 33.45255668 160.10325939 33.76660156 163.91113281 C34.16719497 168.7654959 34.57733074 173.61899422 34.99056435 178.47229576 C35.30974991 182.23147009 35.62436995 185.99101587 35.937603 189.75069046 C36.08704225 191.53916605 36.23773448 193.32753745 36.38975906 195.11579514 C38.26972511 217.31331364 38.26972511 217.31331364 37.625 222.375 C35.625 224.375 35.625 224.375 32.125 224.625 C28.625 224.375 28.625 224.375 26.625 222.375 C26.2019043 220.23852539 26.2019043 220.23852539 25.94921875 217.47265625 C25.84609375 216.38364014 25.74296875 215.29462402 25.63671875 214.17260742 C25.52972656 212.94002197 25.42273438 211.70743652 25.3125 210.4375 C25.19132812 209.12950439 25.07015625 207.82150879 24.9453125 206.47387695 C24.15640928 197.87820287 23.44831049 189.2757269 22.74214172 180.67292786 C22.42197155 176.77391819 22.09937923 172.87511376 21.77661133 168.97631836 C21.34617778 163.77473601 20.92699929 158.57240941 20.5144043 153.36938477 C19.54892421 141.45562142 18.45822244 129.68127563 16.25439453 117.92651367 C14.8370668 109.92889285 14.63028506 101.9097115 14.55859375 93.80859375 C14.38771921 81.09552761 14.14241701 70.84683037 8.50292969 59.31933594 C3.05333293 47.25020674 0.06647488 33.78472185 -2.875 20.9375 C-3.14248047 19.79442383 -3.40996094 18.65134766 -3.68554688 17.47363281 C-4.93867656 11.76662894 -5.85231806 7.08354966 -4.375 1.375 C-3.375 0.375 -3.375 0.375 0 0 Z " fill="#000000" transform="translate(76.375,271.625)"/>
<path d="M0 0 C1.53359431 3.06718861 1.65552102 4.59129069 1 8 C-4.69881556 12.94177733 -11.96973433 16.24160891 -18.6875 19.5625 C-19.65212158 20.03993652 -20.61674316 20.51737305 -21.6105957 21.00927734 C-44.09752383 31.97548471 -44.09752383 31.97548471 -55 31 C-57.75 29.375 -57.75 29.375 -59 27 C-58.83849795 23.60845705 -58.41703243 22.41703243 -56 20 C-53.88871671 19.42608778 -51.75975636 18.91677827 -49.625 18.4375 C-35.47604916 14.94513672 -22.22359725 8.23443201 -10.04296875 0.3359375 C-6.22818794 -1.33884432 -3.98583027 -1.04916074 0 0 Z " fill="#000000" transform="translate(364,154)"/>
<path d="M0 0 C2 2 2 2 2.3125 4.9375 C2 8 2 8 0.74609375 9.640625 C-1.34309776 11.26710967 -2.63758087 11.47928327 -5.25 11.8125 C-18.168093 14.16629887 -29.69905535 20.73174979 -41.05541992 27.03662109 C-41.99748291 27.54789551 -42.9395459 28.05916992 -43.91015625 28.5859375 C-44.74683838 29.0504834 -45.58352051 29.5150293 -46.44555664 29.99365234 C-49.48829662 31.19236918 -51.75611791 31.29667069 -55 31 C-56.9375 29.3125 -56.9375 29.3125 -58 27 C-57.89453125 24.5859375 -57.89453125 24.5859375 -57 22 C-44.17805579 11.01950522 -17.20941744 -3.00204848 0 0 Z " fill="#000000" transform="translate(238,383)"/>
<path d="M0 0 C3.22535442 1.50433716 6.25223061 3.31251458 9.3125 5.125 C15.9486636 8.91401349 22.55206211 12.31384412 29.6875 15.0625 C30.39237549 15.33658691 31.09725098 15.61067383 31.82348633 15.89306641 C36.19675709 17.51900615 40.53019508 18.62796428 45.1159668 19.48876953 C47 20 47 20 49.125 21.8125 C50.26775182 24.66937955 50.05725778 26.1303003 49 29 C44.33090983 32.11272678 40.36251017 31.05110235 35 30 C25.7852034 27.27378834 17.16191941 23.25128144 8.5625 19 C7.746604 18.59724854 6.93070801 18.19449707 6.09008789 17.77954102 C-5.26838536 12.01648869 -5.26838536 12.01648869 -10 8 C-10.81501068 4.53620459 -10.62595874 3.14145417 -8.9375 0.0625 C-5.91191376 -1.59669245 -3.18949029 -0.89088751 0 0 Z " fill="#000000" transform="translate(157,154)"/>
<path d="M0 0 C15.86065501 0.38684524 41.56894717 12.19394717 52.8125 23.4375 C53.0625 26.4375 53.0625 26.4375 52.8125 29.4375 C50.8125 31.4375 50.8125 31.4375 47.703125 31.84375 C42.75521356 31.32710061 39.74069408 29.50145506 35.5625 26.9375 C23.49603189 19.89893638 10.79141239 13.6846183 -3.03515625 11.10546875 C-5.1875 10.4375 -5.1875 10.4375 -7.1875 7.4375 C-6.68437861 2.28050573 -5.26314625 0.14987184 0 0 Z " fill="#000000" transform="translate(279.1875,382.5625)"/>
<path d="M0 0 C1.13888672 -0.02416992 1.13888672 -0.02416992 2.30078125 -0.04882812 C5.60234822 -0.05171916 8.05638349 0.07576568 10.99609375 1.64453125 C12.5 3.3125 12.5 3.3125 13.0625 6.3125 C12.5 9.3125 12.5 9.3125 10.46875 10.98046875 C6.74069897 12.65318638 3.44161812 12.71675339 -0.5625 12.625 C-1.26955078 12.62822266 -1.97660156 12.63144531 -2.70507812 12.63476562 C-6.44845915 12.5961016 -9.3239433 12.38312398 -12.5 10.3125 C-12.5 7.6725 -12.5 5.0325 -12.5 2.3125 C-8.61775848 -0.27910272 -4.49254851 -0.01906854 0 0 Z " fill="#000000" transform="translate(377.5,335.6875)"/>
<path d="M0 0 C0.76763672 0.00515625 1.53527344 0.0103125 2.32617188 0.015625 C5.5999625 0.06129252 8.3143544 0.20895147 11.4375 1.25 C12.80702673 3.98905345 12.56371361 6.22087332 12.4375 9.25 C12.1075 9.91 11.7775 10.57 11.4375 11.25 C7.77899645 12.46950118 4.37346431 12.47253359 0.5625 12.5 C-0.49904297 12.5309375 -0.49904297 12.5309375 -1.58203125 12.5625 C-6.07966517 12.59600193 -9.05323147 12.14396325 -12.5625 9.25 C-13.125 6.25 -13.125 6.25 -12.5625 3.25 C-9.03255381 -0.68441919 -4.89572425 -0.13220521 0 0 Z " fill="#000000" transform="translate(134.5625,335.75)"/>
</svg>
