<?xml version="1.0" encoding="UTF-8"?>
<svg version="1.1" xmlns="http://www.w3.org/2000/svg" width="512" height="512">
<path d="M0 0 C1.14533203 -0.02449219 2.29066406 -0.04898438 3.47070312 -0.07421875 C5.12295898 -0.08001953 5.12295898 -0.08001953 6.80859375 -0.0859375 C7.81591553 -0.09415527 8.8232373 -0.10237305 9.86108398 -0.11083984 C13.29686667 0.50707317 14.46605345 1.62852337 16.5625 4.375 C17.10994955 8.20714687 17.27308909 10.36294888 15.015625 13.578125 C11.67802379 16.02286474 8.77498046 15.81975329 4.8125 15.625 C4.11511719 15.60695313 3.41773438 15.58890625 2.69921875 15.5703125 C0.98638461 15.52338554 -0.72573824 15.45164605 -2.4375 15.375 C-2.35257847 23.88634738 -2.25750233 32.3974986 -2.14997292 40.90858746 C-2.10033407 44.86195659 -2.05400546 48.8153031 -2.015625 52.76879883 C-1.97835734 56.59446139 -1.93189433 60.41991805 -1.87943649 64.24540138 C-1.86111002 65.69435778 -1.8459248 67.14335793 -1.83415604 68.59238243 C-1.64030233 91.66633107 2.96503088 110.80278207 19.125 128.02734375 C36.6283484 144.88553668 56.60356148 147.81349127 79.73828125 147.88671875 C81.75995452 147.90359524 83.78161749 147.92174939 85.80326843 147.94111633 C91.08190693 147.98830013 96.36050364 148.01831302 101.63928223 148.04455566 C107.04280852 148.07452203 112.44619124 148.1209965 117.84960938 148.16601562 C128.42049732 148.25168831 138.9914151 148.31919253 149.5625 148.375 C149.67161713 147.78799316 149.78073425 147.20098633 149.89315796 146.59619141 C151.18077535 139.89589249 152.82187752 133.33478863 154.6015625 126.75 C154.88728119 125.68128662 155.17299988 124.61257324 155.46737671 123.51147461 C156.3711232 120.13184801 157.27889723 116.75332398 158.1875 113.375 C159.10300103 109.96804888 160.01756169 106.56085993 160.92904663 103.15283203 C161.49420466 101.03988183 162.06170057 98.9275553 162.63174438 96.81591797 C162.88555878 95.8673291 163.13937317 94.91874023 163.40087891 93.94140625 C163.6257901 93.10552979 163.85070129 92.26965332 164.08242798 91.40844727 C164.63909039 89.39880985 164.63909039 89.39880985 164.5625 87.375 C163.65096664 87.13110031 162.73943329 86.88720062 161.80027771 86.63591003 C153.19204231 84.33186518 144.58530214 82.02230869 135.97997952 79.70740795 C131.55631547 78.51759519 127.1321551 77.32970107 122.70678711 76.14624023 C118.43265871 75.00314827 114.15993083 73.85495328 109.88810921 72.70327187 C108.26160156 72.26571582 106.63460527 71.82997185 105.00710869 71.39610863 C102.72011766 70.78609693 100.43498056 70.16954791 98.15014648 69.55151367 C97.48335876 69.37528473 96.81657104 69.19905579 96.12957764 69.01748657 C84.55303365 65.86080048 84.55303365 65.86080048 81.5625 61.375 C81.14392518 57.53806413 81.01605731 55.26296936 83.0625 51.9375 C86.87350551 49.55562156 89.05635428 49.89434446 93.5625 50.375 C100.9875 52.355 100.9875 52.355 108.5625 54.375 C108.8925 41.505 109.2225 28.635 109.5625 15.375 C102.16070312 15.46201172 102.16070312 15.46201172 94.609375 15.55078125 C91.48304004 15.57632943 88.3568338 15.60039874 85.23046875 15.61914062 C80.26812001 15.64902978 75.30623257 15.68438542 70.34423828 15.75219727 C66.34362994 15.80652836 62.34351624 15.83642251 58.34256744 15.84938622 C56.81627871 15.85862431 55.29001703 15.87666473 53.7639389 15.90365028 C51.62555989 15.93995893 49.48922365 15.94494515 47.35058594 15.94262695 C46.1336908 15.95373001 44.91679565 15.96483307 43.6630249 15.97627258 C40.5625 15.375 40.5625 15.375 38.13433838 13.06608582 C36.5625 10.375 36.5625 10.375 36.625 6.75 C37.88413967 2.21709718 37.88413967 2.21709718 40.5625 0.375 C43.14640188 0.07384309 45.4906677 -0.04521349 48.07568359 -0.02905273 C48.83862228 -0.03591599 49.60156097 -0.04277924 50.38761902 -0.04985046 C52.91224733 -0.06816657 55.43625693 -0.06427368 57.9609375 -0.05859375 C59.71587324 -0.06315388 61.47080719 -0.06845895 63.22573853 -0.07447815 C66.90609993 -0.08341915 70.58624447 -0.08097568 74.26660156 -0.07104492 C78.9801229 -0.05956513 83.692894 -0.07974617 88.40631676 -0.10896206 C92.03177641 -0.12732257 95.65705633 -0.12703173 99.28255081 -0.12132454 C101.0200671 -0.12117125 102.75759551 -0.12722229 104.4950676 -0.13961601 C106.92736341 -0.15451849 109.35827443 -0.14385497 111.79052734 -0.12670898 C112.50654617 -0.13637695 113.222565 -0.14604492 113.96028137 -0.15600586 C118.7572961 -0.08530661 121.19280021 0.97789241 124.5625 4.375 C125.8171715 6.88434299 125.72123558 8.65877355 125.76782227 11.46728516 C125.78776749 12.52823395 125.80771271 13.58918274 125.82826233 14.68228149 C125.85333107 16.40576309 125.85333107 16.40576309 125.87890625 18.1640625 C125.89968735 19.33762299 125.92046844 20.51118347 125.94187927 21.7203064 C126.00741983 25.48014304 126.06628076 29.24005122 126.125 33 C126.16818092 35.54427832 126.21179507 38.08854933 126.25585938 40.6328125 C126.36310582 46.88013207 126.4648638 53.12752326 126.5625 59.375 C127.44294479 59.61223785 128.32338959 59.84947571 129.23051453 60.09390259 C137.62731857 62.35674452 146.02370381 64.62113294 154.41965008 66.88715553 C158.73356644 68.05140377 163.04762901 69.21510361 167.36206055 70.37744141 C200.31901846 79.25724032 200.31901846 79.25724032 212.9765625 82.81640625 C213.76677292 83.03499298 214.55698334 83.25357971 215.37113953 83.47879028 C227.2808445 86.87162271 236.89218057 92.47076907 245.5625 101.375 C246.51382813 102.27798828 246.51382813 102.27798828 247.484375 103.19921875 C258.8919006 114.83388535 262.04178845 130.85818167 261.98974609 146.52416992 C261.65588987 162.62699849 254.52791547 174.81673929 246.5625 188.375 C245.34278067 190.47600006 244.12408424 192.5775942 242.90625 194.6796875 C239.47646997 200.58876276 236.03579712 206.49137687 232.5625 212.375 C232.04163818 213.27694092 231.52077637 214.17888184 230.98413086 215.1081543 C229.33265871 217.74149087 228.55030738 218.54505351 225.5625 219.375 C221.88189225 219.24585587 219.4908235 219.15359391 216.625 216.75 C215.15318136 213.46005246 215.32342483 210.95947553 215.5625 207.375 C216.76489258 204.49511719 216.76489258 204.49511719 218.45703125 201.671875 C219.07803711 200.61806641 219.69904297 199.56425781 220.33886719 198.47851562 C221.01079102 197.37185547 221.68271484 196.26519531 222.375 195.125 C223.06186254 193.96646623 223.74707008 192.80694976 224.43066406 191.64648438 C226.45799643 188.21255234 228.50852135 184.79306361 230.5625 181.375 C232.18339012 178.67215323 233.80123701 175.96791048 235.4050293 173.25488281 C236.30859747 171.72704542 237.22202114 170.20496981 238.14770508 168.69042969 C242.87696576 160.71264719 245.12869725 152.7108517 245 143.4375 C244.99242676 142.65898682 244.98485352 141.88047363 244.97705078 141.07836914 C244.63456859 129.03774536 239.3903459 119.53044544 231.4375 110.6875 C222.5164171 102.42389392 210.37160751 99.55841029 198.9375 96.5 C197.46714887 96.09483369 195.99709438 95.68858928 194.52734375 95.28125 C188.13057243 93.24804853 188.13057243 93.24804853 181.5625 92.375 C179.60380698 99.64116329 177.64779559 106.90804384 175.69522858 114.17585564 C174.78854078 117.55037538 173.88092247 120.92463914 172.97119141 124.29833984 C171.92595485 128.17471816 170.88474158 132.05216704 169.84375 135.9296875 C169.51564331 137.14429657 169.18753662 138.35890564 168.8494873 139.61032104 C168.54917603 140.73133209 168.24886475 141.85234314 167.93945312 143.00732422 C167.67297974 143.99771698 167.40650635 144.98810974 167.13195801 146.0085144 C166.48451461 148.29340953 166.48451461 148.29340953 166.5625 150.375 C169.62505961 150.4020491 172.6873786 150.42186298 175.75 150.4375 C176.61431641 150.44587891 177.47863281 150.45425781 178.36914062 150.46289062 C182.5826557 150.47903436 186.44768969 150.3903428 190.5625 149.375 C194.9813528 148.90155149 196.85679545 148.88982812 200.5625 151.4375 C202.5625 154.375 202.5625 154.375 202.625 157.9375 C201.42976631 161.80443254 200.93246393 163.15575546 197.5625 165.375 C193.04591669 166.86853153 188.67636468 167.41089252 183.92578125 167.2578125 C176.21556229 167.08949274 176.21556229 167.08949274 169.6953125 170.765625 C166.90581142 174.04352715 164.73309179 177.67112316 162.5625 181.375 C161.78739444 182.61516889 161.01135145 183.85475238 160.234375 185.09375 C149.87238656 202.10230778 144.61210252 220.34453665 139.84985352 239.50097656 C137.05322227 250.71708439 133.89619487 261.64069618 129.5625 272.375 C129.27084961 273.09751953 128.97919922 273.82003906 128.67871094 274.56445312 C122.29690774 290.08180416 114.76034991 305.67833688 105.54956055 319.71435547 C104.39502733 321.52260543 104.39502733 321.52260543 103.5625 324.375 C104.59503906 324.76365234 104.59503906 324.76365234 105.6484375 325.16015625 C108.93835504 326.53169024 112.0315647 328.15616827 115.1875 329.8125 C123.67993519 334.14920526 132.06244236 336.47876815 141.5625 337.375 C141.95949097 336.31381958 141.95949097 336.31381958 142.36450195 335.23120117 C143.6247334 332.22662654 145.10633309 329.49999202 146.73046875 326.67578125 C147.36863525 325.56251465 148.00680176 324.44924805 148.66430664 323.30224609 C149.35945534 322.09728318 150.0546887 320.8923691 150.75 319.6875 C151.47218618 318.43065201 152.1941059 317.17365088 152.91577148 315.91650391 C154.76993067 312.68862852 156.62813953 309.46310651 158.48791504 306.23846436 C160.13642183 303.37974796 161.78281688 300.51981546 163.4296875 297.66015625 C166.50970648 292.31525078 169.59515856 286.97349933 172.68164062 281.63232422 C175.27220562 277.1459122 177.85694501 272.65615307 180.44189453 268.16650391 C182.32495335 264.89933265 184.21275714 261.63494539 186.1015625 258.37109375 C188.2818019 254.60277133 190.44370732 250.82520076 192.5859375 247.03515625 C193.47383018 245.48169758 194.36184148 243.9283067 195.25 242.375 C195.63583252 241.68075928 196.02166504 240.98651855 196.41918945 240.27124023 C199.77753017 234.44236149 199.77753017 234.44236149 203.5625 233.375 C206.91455511 233.55142395 209.53641301 233.81230713 212.5 235.4375 C214.2993845 238.71873057 214.20693205 241.79327314 213.5625 245.375 C211.73532025 249.55113822 209.37949273 253.36816089 207 257.25 C206.31455766 258.39733513 205.63099815 259.54579697 204.94921875 260.6953125 C203.53311365 263.07961527 202.10907819 265.45889494 200.67919922 267.83496094 C197.39723973 273.30395918 194.23658286 278.84296691 191.0625 284.375 C189.8130645 286.54199224 188.56306272 288.70865808 187.3125 290.875 C186.69375 291.9475 186.075 293.02 185.4375 294.125 C179.8125 303.875 179.8125 303.875 177.93481445 307.12939453 C176.69346525 309.28123914 175.45241371 311.43325548 174.21166992 313.58544922 C171.30269997 318.63052062 168.39089477 323.67388421 165.46817017 328.71099854 C164.4350706 330.49180001 163.40293829 332.27315858 162.37109375 334.0546875 C161.07743912 336.28757083 159.78197836 338.5194091 158.484375 340.75 C152.85214262 350.24389918 152.85214262 350.24389918 148.5625 360.375 C149.635 360.2925 150.7075 360.21 151.8125 360.125 C155.5625 360.375 155.5625 360.375 157.9375 362 C159.89802952 364.8653893 160.34240786 366.92688985 160.5625 370.375 C160.2325 371.365 159.9025 372.355 159.5625 373.375 C160.26327667 374.05579117 160.26327667 374.05579117 160.97821045 374.75033569 C165.86324546 379.50202915 170.72655035 384.27518813 175.578125 389.06103516 C177.38845883 390.84130451 179.20415545 392.61613831 181.02539062 394.38525391 C183.65122312 396.9378274 186.25677238 399.50970817 188.859375 402.0859375 C189.66993347 402.86552826 190.48049194 403.64511902 191.31561279 404.44833374 C197.26460649 410.39378234 201.51659437 416.82207086 202.0625 425.4375 C201.15062171 432.61854154 198.10483482 439.53048942 192.5625 444.375 C185.37432177 449.39588831 178.77664677 452.6484989 169.875 452.75 C168.75738281 452.77835937 167.63976562 452.80671875 166.48828125 452.8359375 C156.85918447 451.70535698 148.79253662 447.07569797 140.625 442.125 C138.51252725 440.86843146 136.39921067 439.6132807 134.28515625 438.359375 C132.63990967 437.38000977 132.63990967 437.38000977 130.96142578 436.38085938 C125.78345949 433.32510797 120.55917823 430.35209059 115.33227539 427.38122559 C102.85969165 420.28979864 90.42712009 413.13064842 78.06494141 405.84814453 C76.49091558 404.9215424 74.91529386 403.99764061 73.33740234 403.07763672 C71.48977005 401.9989923 69.64981188 400.90860067 67.8125 399.8125 C66.39710938 398.97525391 66.39710938 398.97525391 64.953125 398.12109375 C60.24672353 394.68357503 57.08159001 390.00328312 55.5625 384.375 C53.8806781 372.15646259 60.97221587 362.627277 66.875 352.4375 C67.58673826 351.20115439 68.29807536 349.96457776 69.0090332 348.7277832 C70.83377989 345.55598225 72.66370526 342.38720766 74.49572754 339.21960449 C76.16261428 336.33731527 77.82727467 333.45374238 79.4921875 330.5703125 C80.11689941 329.48862793 80.74161133 328.40694336 81.38525391 327.29248047 C83.84821114 323.02632123 86.30903663 318.75893989 88.76757812 314.49023438 C89.96016447 312.42040279 91.15416581 310.35138582 92.34960938 308.28320312 C107.14600344 282.64816303 118.03712271 257.2342517 125.1875 228.4375 C131.14924082 204.45312691 139.79248632 185.03002053 153.5625 164.375 C125.1825 164.375 96.8025 164.375 67.5625 164.375 C66.9025 166.025 66.2425 167.675 65.5625 169.375 C64.537349 171.29155679 63.47806831 173.1900553 62.39453125 175.07421875 C61.75636475 176.18748535 61.11819824 177.30075195 60.46069336 178.44775391 C59.76554466 179.65271682 59.0703113 180.8576309 58.375 182.0625 C57.65281382 183.31934799 56.9308941 184.57634912 56.20922852 185.83349609 C54.35506933 189.06137148 52.49686047 192.28689349 50.63708496 195.51153564 C48.98857817 198.37025204 47.34218312 201.23018454 45.6953125 204.08984375 C43.22807695 208.37142341 40.75771095 212.65117756 38.28515625 216.9296875 C35.7674872 221.28640146 33.25478757 225.64592435 30.74609375 230.0078125 C27.62248744 235.43855535 24.4873301 240.86250749 21.34716797 246.28369141 C19.62876546 249.26021844 17.92497186 252.24472137 16.22265625 255.23046875 C11.03607532 264.25913509 5.64110186 273.02191597 -0.5 281.4375 C-1.01699463 282.150271 -1.53398926 282.86304199 -2.06665039 283.59741211 C-11.90940357 296.72460169 -24.02836693 308.12659687 -35.61376953 319.68164062 C-38.09656924 322.15899451 -40.5738681 324.64176199 -43.05078125 327.125 C-44.62988709 328.70344644 -46.20930235 330.28158341 -47.7890625 331.859375 C-48.89829575 332.97164459 -48.89829575 332.97164459 -50.02993774 334.10638428 C-51.05273331 335.1244516 -51.05273331 335.1244516 -52.09619141 336.16308594 C-52.69509186 336.7611908 -53.29399231 337.35929565 -53.91104126 337.9755249 C-56.06650226 339.95167657 -57.31825912 340.35910122 -60.25 340.75 C-63.4375 340.375 -63.4375 340.375 -66.3125 338.25 C-68.4375 335.375 -68.4375 335.375 -69.1875 332.5625 C-67.3735212 324.85309012 -58.78135154 318.6145331 -53.265625 313.2109375 C-51.69761783 311.6604584 -50.12991936 310.10966707 -48.5625 308.55859375 C-46.13292407 306.15977812 -43.70112842 303.7633676 -41.26367188 301.37255859 C-24.13367985 284.55218665 -10.40311263 266.78173299 1.6875 246.0625 C2.17347656 245.23145752 2.65945312 244.40041504 3.16015625 243.54418945 C3.60488281 242.77034912 4.04960937 241.99650879 4.5078125 241.19921875 C4.90500488 240.50916748 5.30219727 239.81911621 5.71142578 239.1081543 C6.70942626 237.39760176 6.70942626 237.39760176 6.5625 235.375 C5.89009277 234.98868408 5.21768555 234.60236816 4.52490234 234.2043457 C-10.85655519 225.36216171 -26.18677144 216.44156044 -41.4375 207.375 C-43.12993507 212.2933189 -44.69942911 217.20907472 -46.0859375 222.22265625 C-46.36953125 223.24037109 -46.653125 224.25808594 -46.9453125 225.30664062 C-47.52389023 227.39551474 -48.09419858 229.48669678 -48.65625 231.58007812 C-51.33448106 241.09262402 -54.94527268 248.83777893 -63.4375 254.375 C-67.33093329 256.36305966 -71.33248044 258.0282274 -75.375 259.6875 C-100.82744703 270.55200091 -123.44174887 285.11119317 -140.4375 307.375 C-141.11554688 308.24898438 -141.79359375 309.12296875 -142.4921875 310.0234375 C-149.64096305 319.50877782 -155.16132478 329.70504993 -160.3581543 340.3425293 C-168.38793638 356.7556236 -177.89872881 371.23673255 -189.4375 385.375 C-190.7722053 387.04056817 -192.10605118 388.70682747 -193.4375 390.375 C-180.16551271 404.86946618 -180.16551271 404.86946618 -162.4375 412.375 C-161.77069214 412.55207993 -161.10388428 412.72915985 -160.41687012 412.91160583 C-156.81833647 413.45741344 -153.96297064 413.37354034 -150.83364868 411.32515335 C-146.18150163 407.55607951 -142.10560402 403.16185555 -137.96875 398.84765625 C-136.6000546 397.45775132 -135.22904495 396.07012187 -133.85583496 394.68467712 C-130.2569683 391.04208408 -126.68872159 387.37091962 -123.12658691 383.69244385 C-119.48928158 379.94571309 -115.82632373 376.22426844 -112.1640625 372.50195312 C-108.0535615 368.32399221 -103.9454768 364.14409342 -99.86047363 359.94117737 C-99.24056549 359.30483368 -98.62065735 358.66848999 -97.98196411 358.01286316 C-96.82244426 356.82200627 -95.66495586 355.62916678 -94.50985718 354.434021 C-89.71580014 349.51703335 -89.71580014 349.51703335 -85.625 349.0625 C-81.5580956 349.46121612 -80.08453795 350.26083771 -77.4375 353.375 C-76.51813902 359.86226809 -76.51813902 359.86226809 -78.53957558 363.18837357 C-80.17893817 365.08017085 -81.90686922 366.79993153 -83.72387695 368.52197266 C-84.39205444 369.18649948 -85.06023193 369.85102631 -85.74865723 370.53569031 C-87.95639077 372.72259871 -90.19072915 374.88011272 -92.42578125 377.0390625 C-93.96754455 378.55827231 -95.5073284 380.07949334 -97.04521179 381.60263062 C-101.09608519 385.60599265 -105.1690537 389.58605612 -109.24841309 393.56036377 C-115.77236125 399.92274927 -122.26457733 406.31740903 -128.7523098 412.71668625 C-131.01963736 414.94594157 -133.29770132 417.16375636 -135.57746887 419.38027954 C-136.97290959 420.74883579 -138.36808086 422.11766685 -139.76293945 423.48681641 C-140.39735458 424.09787735 -141.03176971 424.70893829 -141.68540955 425.33851624 C-145.14829303 428.75735246 -147.51579818 431.81496257 -149.4375 436.375 C-148.509375 436.4575 -147.58125 436.54 -146.625 436.625 C-143.4375 437.375 -143.4375 437.375 -141.5625 439.125 C-140.2526071 441.7447858 -140.35139474 443.4856903 -140.4375 446.375 C-139.86136963 446.48312012 -139.28523926 446.59124023 -138.69165039 446.70263672 C-131.68494264 448.05644933 -124.77581374 449.68421558 -117.875 451.5 C-116.80314453 451.7578125 -115.73128906 452.015625 -114.62695312 452.28125 C-105.72640495 454.65472951 -99.49266007 458.74596959 -94.375 466.5 C-92.00193557 476.30866633 -92.45100103 486.47149246 -97.4375 495.375 C-103.45392813 503.62542599 -110.48903613 509.72417853 -120.4375 512.375 C-124.41645175 512.7036957 -128.38784597 512.72680206 -132.37890625 512.74609375 C-133.53817123 512.75512222 -134.69743622 512.7641507 -135.89183044 512.77345276 C-138.34363227 512.78793938 -140.79547262 512.79683804 -143.24731445 512.80053711 C-146.9630829 512.81238231 -150.67716228 512.8615444 -154.39257812 512.91210938 C-176.18187378 513.06733912 -187.77174725 509.09308243 -203.46395493 493.66384697 C-205.01743186 492.12462437 -206.56583533 490.58044063 -208.11328125 489.03515625 C-209.21170834 487.94317316 -210.31027777 486.85133322 -211.40898132 485.7596283 C-213.69587229 483.48462964 -215.97867761 481.20562067 -218.2590332 478.92407227 C-221.16833349 476.01456804 -224.09120168 473.11911592 -227.01771259 470.22693729 C-229.285218 467.98174929 -231.54349376 465.72744793 -233.79933739 463.47054863 C-234.8729185 462.39931178 -235.94970759 461.33127914 -237.02987099 460.26667976 C-249.67748285 447.78453385 -249.67748285 447.78453385 -250.96875 438.59375 C-250.8146213 420.25243449 -239.76505203 411.55191742 -227.34765625 399.328125 C-226.63107346 398.62169357 -225.91449066 397.91526215 -225.17619324 397.18742371 C-222.21186201 394.26837606 -219.24597221 391.35117197 -216.26489258 388.44921875 C-203.64236518 376.14402133 -192.26838432 363.37867776 -183.6875 347.875 C-183.01811401 346.69454102 -183.01811401 346.69454102 -182.33520508 345.49023438 C-178.73843096 339.08164776 -175.429733 332.54042103 -172.19140625 325.9453125 C-151.91990812 284.67994659 -116.63238049 256.42318563 -73.92578125 240.7109375 C-69.41983737 238.29173372 -67.4209658 234.84510808 -65.94407654 230.07258606 C-65.47027029 228.36799107 -65.0097736 226.65965914 -64.56030273 224.94848633 C-64.1801245 223.56009284 -64.1801245 223.56009284 -63.79226589 222.14365101 C-62.99574615 219.22376721 -62.21612258 216.29970063 -61.4375 213.375 C-60.94993277 211.57681815 -60.46135968 209.77890869 -59.97171021 207.98129272 C-58.72118907 203.37592302 -57.48750415 198.76622651 -56.25969505 194.15475464 C-55.44273742 191.08686573 -54.62313404 188.01969258 -53.80305481 184.95263672 C-51.11354942 174.88883033 -48.43474623 164.822224 -45.76719666 154.75257587 C-44.25715427 149.05321582 -42.74443029 143.35457012 -41.23046875 137.65625 C-40.78566288 135.98120172 -40.78566288 135.98120172 -40.33187103 134.27231407 C-37.00555691 121.76242139 -33.61459462 109.28198784 -29.92861748 96.87296486 C-21.713553 69.20226715 -17.11891463 43.95280552 -18.54733276 14.94438171 C-18.72504393 9.95887437 -18.28234919 6.68011735 -15.4375 2.375 C-10.67664081 -0.79890613 -5.59804275 0.00627935 0 0 Z M-15.4375 104.375 C-18.33608704 114.97664108 -21.22287926 125.58141589 -24.09464359 136.19035625 C-25.4284802 141.11637856 -26.76635964 146.04122776 -28.11352539 150.96362305 C-29.41338464 155.71375127 -30.70256166 160.46666036 -31.98437309 165.22168922 C-32.47536048 167.0356038 -32.9701927 168.84848217 -33.46891975 170.66028404 C-34.16664225 173.19756566 -34.85062096 175.73818271 -35.53149414 178.2800293 C-35.74080566 179.02881348 -35.95011719 179.77759766 -36.16577148 180.54907227 C-37.19539599 184.45399282 -37.8848699 187.52688807 -36.4375 191.375 C-34.12966017 193.08336057 -32.00952549 194.40226517 -29.5 195.75 C-27.95809025 196.61545247 -26.41644129 197.48136969 -24.875 198.34765625 C-23.58916016 199.05946045 -23.58916016 199.05946045 -22.27734375 199.78564453 C-19.12281733 201.55111625 -15.99797739 203.36291241 -12.875 205.18359375 C-10.58334036 206.51824124 -8.29167371 207.85287668 -6 209.1875 C-4.91146729 209.82155762 -3.82293457 210.45561523 -2.70141602 211.10888672 C3.61754964 214.76121703 9.98658273 218.20704657 16.5625 221.375 C23.94751916 208.74694439 31.310586 196.10657233 38.625 183.4375 C39.24318604 182.36773926 39.86137207 181.29797852 40.49829102 180.19580078 C43.90741777 174.28490878 47.27324558 168.35348684 50.5625 162.375 C49.56992187 162.09527344 48.57734375 161.81554687 47.5546875 161.52734375 C33.06944138 157.31227895 20.86305795 151.66786488 9.5625 141.375 C8.85609375 140.76140625 8.1496875 140.1478125 7.421875 139.515625 C-1.76953565 131.04794747 -7.63765482 119.74812714 -12.4375 108.375 C-13.09325302 107.03626545 -13.7562091 105.70092041 -14.4375 104.375 C-14.7675 104.375 -15.0975 104.375 -15.4375 104.375 Z M94.5625 337.375 C93.56244361 339.10673827 92.56245973 340.83851841 91.5625 342.5703125 C90.92570312 343.6727832 90.28890625 344.77525391 89.6328125 345.91113281 C88.24961703 348.30721298 86.86966708 350.70512176 85.4921875 353.10449219 C79.65790276 363.25954786 79.65790276 363.25954786 76.75 368.0078125 C76.36972656 368.63800293 75.98945313 369.26819336 75.59765625 369.91748047 C74.63899301 371.49882261 73.66393403 373.0701936 72.6875 374.640625 C71.24771977 378.14009085 71.47145896 379.76581902 72.5625 383.375 C75.04953143 385.58109419 75.04953143 385.58109419 78.30078125 387.27734375 C78.88362381 387.6126561 79.46646637 387.94796844 80.06697083 388.29344177 C81.28741832 388.99284628 82.51296489 389.68342146 83.7432251 390.36541748 C86.53273538 391.91341928 89.28324016 393.52855793 92.04296875 395.12890625 C94.27751667 396.40042393 96.51323218 397.66989149 98.75 398.9375 C101.21545907 400.34006579 103.67992618 401.74437173 106.14453125 403.1484375 C106.76380493 403.50095078 107.38307861 403.85346405 108.02111816 404.21665955 C114.33747169 407.81302482 120.64044032 411.43245815 126.9375 415.0625 C127.99485352 415.67182373 129.05220703 416.28114746 130.14160156 416.90893555 C138.40188447 421.68031235 146.61819158 426.5241994 154.80029297 431.4284668 C155.64865723 431.93418213 156.49702148 432.43989746 157.37109375 432.9609375 C158.11157959 433.4048584 158.85206543 433.8487793 159.61499023 434.30615234 C164.15991472 436.80053361 168.50788041 436.95570872 173.5625 436.375 C178.14004462 434.9696135 180.97443248 433.04912618 184.125 429.4375 C185.78321146 425.90478863 185.73436697 425.00292273 184.5625 421.375 C182.83712382 418.97939664 182.83712382 418.97939664 180.55615234 416.69238281 C179.70370941 415.79505432 178.85126648 414.89772583 177.97299194 413.97320557 C177.0327586 413.00692687 176.09120506 412.0419313 175.1484375 411.078125 C174.67161152 410.58749321 174.19478554 410.09686142 173.70351028 409.591362 C171.17543596 406.99167978 168.63532506 404.40447153 166.08496094 401.82666016 C163.47235363 399.18109066 160.90430283 396.49641053 158.34447289 393.7998848 C156.35187034 391.71701393 154.32800599 389.66666616 152.29491043 387.62337494 C151.33508467 386.64790682 150.38687344 385.66084897 149.45170212 384.66172028 C144.60938201 379.51097518 140.71132443 376.03895864 133.57792091 375.50460434 C131.63268103 375.45440076 129.6857153 375.49674544 127.74038696 375.543396 C124.5625 375.375 124.5625 375.375 122.67294312 374.01861572 C121.16633555 371.78861956 120.81729138 370.05030945 120.5625 367.375 C120.8925 365.725 121.2225 364.075 121.5625 362.375 C127.0075 361.385 127.0075 361.385 132.5625 360.375 C132.8925 358.065 133.2225 355.755 133.5625 353.375 C132.55058594 353.08753906 131.53867187 352.80007813 130.49609375 352.50390625 C129.18483832 352.12780463 127.87364159 351.75149829 126.5625 351.375 C125.43972656 351.05402344 124.31695312 350.73304688 123.16015625 350.40234375 C114.28319402 347.66568909 106.61705177 343.90400828 98.6328125 339.16796875 C96.01115947 337.2909532 96.01115947 337.2909532 94.5625 337.375 Z M-212.7578125 408.21875 C-213.68580154 409.1225238 -213.68580154 409.1225238 -214.63253784 410.04455566 C-215.94179757 411.32610914 -217.24795753 412.61083578 -218.55126953 413.8984375 C-220.54433772 415.85715079 -222.56240225 417.78748903 -224.58203125 419.71875 C-225.85061261 420.9670711 -227.11759319 422.21702146 -228.3828125 423.46875 C-228.98900421 424.03992554 -229.59519592 424.61110107 -230.21975708 425.19958496 C-233.01570051 428.02505137 -234.85330934 430.26590061 -235.25341797 434.30664062 C-234.78382129 439.70777054 -231.13618946 442.74951237 -227.4375 446.375 C-225.87381803 447.99759888 -224.3101813 449.62024135 -222.74658203 451.24291992 C-220.98259682 453.03350003 -219.21535053 454.82087178 -217.4453125 456.60546875 C-216.97753262 457.07732416 -216.50975273 457.54917957 -216.0277977 458.03533363 C-213.55644339 460.52736665 -211.08195545 463.01623978 -208.60498047 465.50268555 C-206.06946164 468.04930007 -203.54585647 470.60739433 -201.02466011 473.1681776 C-199.06150843 475.15762092 -197.08938162 477.13798673 -195.11483383 479.11611366 C-193.73206929 480.50602206 -192.35894815 481.90550341 -190.9861145 483.30522156 C-178.90208589 495.3480293 -168.21958453 497.67054247 -151.55664062 497.6484375 C-150.78682861 497.64424805 -150.0170166 497.64005859 -149.22387695 497.63574219 C-146.87620311 497.6250055 -144.52929153 497.63569584 -142.18164062 497.6484375 C-126.8523327 497.84701557 -126.8523327 497.84701557 -114.1015625 490.2265625 C-109.95507804 485.61286852 -109.09629363 481.52134868 -108.84375 475.5234375 C-109.75724251 472.21803697 -111.62823351 471.28230158 -114.4375 469.375 C-117.17763495 468.42566748 -119.78995106 467.63686108 -122.58984375 466.9375 C-123.75647301 466.62727905 -123.75647301 466.62727905 -124.94667053 466.31079102 C-127.41985146 465.65370287 -129.89672719 465.01259398 -132.375 464.375 C-135.63768766 463.53379608 -138.89586193 462.67737434 -142.15234375 461.8125 C-142.89314682 461.62695557 -143.63394989 461.44141113 -144.39720154 461.25024414 C-150.28903183 459.6856171 -154.94475657 457.61411515 -158.4375 452.375 C-160.41373239 451.91733256 -160.41373239 451.91733256 -162.68359375 451.96875 C-163.93946289 451.93587891 -163.93946289 451.93587891 -165.22070312 451.90234375 C-166.09662109 451.89332031 -166.97253906 451.88429688 -167.875 451.875 C-169.60305465 451.85711917 -171.33103643 451.82639754 -173.05859375 451.78125 C-173.8261499 451.77416016 -174.59370605 451.76707031 -175.38452148 451.75976562 C-177.95505663 451.27800045 -178.84103252 450.40743309 -180.4375 448.375 C-180.87109375 446.4375 -180.87109375 446.4375 -180.875 444.375 C-180.89433594 443.694375 -180.91367188 443.01375 -180.93359375 442.3125 C-180.4375 440.375 -180.4375 440.375 -178.76953125 438.66796875 C-175.96735452 437.11433307 -173.87427955 436.87718926 -170.6875 436.6875 C-169.70265625 436.62175781 -168.7178125 436.55601562 -167.703125 436.48828125 C-166.58164063 436.43220703 -166.58164063 436.43220703 -165.4375 436.375 C-165.1075 433.735 -164.7775 431.095 -164.4375 428.375 C-165.25992188 428.15585937 -166.08234375 427.93671875 -166.9296875 427.7109375 C-182.22428684 423.36628226 -192.27701905 415.02349063 -203.0625 403.58984375 C-206.84746618 400.2457401 -210.04811451 405.57553571 -212.7578125 408.21875 Z " fill="#000000" transform="translate(250.4375,-0.375)"/>
</svg>
