<?xml version="1.0" encoding="UTF-8"?>
<svg version="1.1" xmlns="http://www.w3.org/2000/svg" width="512" height="512">
<path d="M0 0 C3.41477123 2.83353358 5.80502835 4.97357337 6.23828125 9.4765625 C6.65791215 27.27774717 0.75960952 45.25742019 -11.375 58.5 C-13.20460721 60.3929241 -15.08176526 62.19253657 -17 64 C-17.79148437 64.74894531 -18.58296875 65.49789062 -19.3984375 66.26953125 C-31.92993103 77.15652646 -48.81671217 81.50480686 -64.3125 86.4375 C-66.45656844 87.12806971 -68.60036195 87.81949357 -70.74389648 88.51171875 C-76.35462164 90.32068655 -81.96917433 92.11743037 -87.58520508 93.90985107 C-90.98246417 94.99440181 -94.37904483 96.0810499 -97.77539062 97.16845703 C-99.44007133 97.70141136 -99.44007133 97.70141136 -101.13838196 98.24513245 C-102.24255966 98.5986528 -103.34673737 98.95217316 -104.484375 99.31640625 C-110.85372227 101.35557491 -117.22352606 103.39319949 -123.59692383 105.41967773 C-133.71989418 108.64093306 -143.83111103 111.89788775 -153.921875 115.21875 C-154.90334 115.53783325 -155.88480499 115.8569165 -156.89601135 116.18566895 C-165.38433611 118.99767056 -173.23270463 122.58929364 -181 127 C-182.11246094 127.62519531 -183.22492188 128.25039062 -184.37109375 128.89453125 C-208.94380477 143.37856619 -227.81520745 163.8086304 -241 189 C-241.60585937 190.15757812 -242.21171875 191.31515625 -242.8359375 192.5078125 C-246.31540138 199.41966958 -248.98009765 206.47960386 -251.25 213.875 C-251.48412598 214.62797363 -251.71825195 215.38094727 -251.95947266 216.15673828 C-256.65389044 232.2523657 -257.50652234 247.83117009 -257.44604492 264.52978516 C-257.43749786 268.1259016 -257.46646039 271.72044407 -257.49804688 275.31640625 C-257.54635388 290.74639742 -256.6364099 304.3575526 -249.3125 318.25 C-248.9721875 318.91056396 -248.631875 319.57112793 -248.28125 320.25170898 C-239.02720295 337.56729293 -224.12712764 348.62461549 -206.06640625 355.4453125 C-202.08119259 357.46584121 -199.76187819 359.80179406 -198.28515625 364.0625 C-197.88228894 367.56815241 -197.78495554 369.51614997 -199.25 372.8125 C-202.02554916 376.28193645 -203.30738366 377.78869332 -207.6875 379.125 C-219.35674007 380.07526385 -235.41358058 369.60621654 -243.9609375 362.55859375 C-246.35500627 360.41600279 -248.70059178 358.24344917 -251 356 C-259.38329116 386.64355031 -252.65565643 428.05830335 -246.45849609 458.67529297 C-245.35407624 464.27501919 -244.89457682 469.99386164 -247.6875 475.0625 C-251.40694729 478.17879367 -254.17325119 479.23690359 -259 478.9375 C-261.91954737 478.43166505 -263.23606688 477.84786801 -265.8125 476.1875 C-287.40027651 444.73102565 -278.64299904 375.96590973 -274.65625 339.5859375 C-273.76438316 331.11975158 -273.37766796 324.60838957 -276.375 316.5 C-280.5388062 304.80348987 -282.1381989 293.72995768 -282.203125 281.33984375 C-282.21371445 279.99094307 -282.21371445 279.99094307 -282.22451782 278.61479187 C-282.56883489 221.84008783 -269.63297063 174.02767531 -229.625 132.3125 C-223.83597291 126.69006361 -217.47953651 121.79296393 -211 117 C-210.43071777 116.5757373 -209.86143555 116.15147461 -209.27490234 115.71435547 C-189.16503941 100.9394088 -165.9662727 93.25995425 -142.46289062 85.75292969 C-136.43944602 83.82594606 -130.43042312 81.85567139 -124.421875 79.8828125 C-122.21102932 79.15735752 -120.00017309 78.43193465 -117.78930664 77.70654297 C-116.68088409 77.34284607 -115.57246155 76.97914917 -114.43045044 76.60443115 C-100.90082223 72.16774387 -87.36749237 67.74400483 -73.80078125 63.421875 C-72.09297498 62.87578424 -70.38520999 62.32956437 -68.67749023 61.78320312 C-65.58470526 60.79373463 -62.48893985 59.81456934 -59.39086914 58.84179688 C-43.01706188 53.64342937 -31.34418881 47.62677599 -23 32 C-19.49338128 24.65904119 -18.35815431 17.41389785 -17.6875 9.3828125 C-16.90615219 5.53822614 -15.70814387 3.78959181 -13 1 C-8.81753944 -1.55594812 -4.58222226 -1.46260832 0 0 Z " fill="#000000" transform="translate(354,17)"/>
<path d="M0 0 C0.74121094 0.05285156 1.48242188 0.10570312 2.24609375 0.16015625 C7.55338277 1.94118579 9.76617522 6.05544003 12.140625 10.81640625 C13.03721716 12.70812083 13.9275925 14.60279145 14.8125 16.5 C18.98040438 25.1175667 23.23060773 32.69598888 29.5625 39.9375 C30.1709375 40.65550781 30.779375 41.37351562 31.40625 42.11328125 C44.82948841 56.75939943 65.66705544 65.37424323 85.28866577 66.30471802 C90.70833239 66.45868884 96.12651938 66.47326396 101.54807091 66.45392036 C105.15126788 66.44113281 108.75371657 66.45271942 112.35688782 66.46995544 C118.69526729 66.49645658 125.03345833 66.50225784 131.37188721 66.50085449 C141.5530887 66.4986112 151.73405996 66.51274255 161.91517067 66.55644035 C165.45941552 66.56626132 169.00329399 66.55757715 172.54753113 66.54774475 C174.7161788 66.55388696 176.88482447 66.56079803 179.0534668 66.56860352 C180.03376862 66.56088425 181.01407043 66.55316498 182.02407837 66.54521179 C187.27196003 66.58421437 191.0637366 66.91551108 195.5625 69.9375 C198.23991863 73.95362795 199.26210009 77.14024224 198.5625 81.9375 C196.52256092 85.5953218 195.05830738 87.60696174 191.5625 89.9375 C189.4236412 90.19197559 189.4236412 90.19197559 186.89886475 90.19819641 C185.94037628 90.20528122 184.98188782 90.21236603 183.99435425 90.21966553 C182.94402008 90.21718811 181.89368591 90.21471069 180.81152344 90.2121582 C179.14988663 90.2198246 179.14988663 90.2198246 177.4546814 90.22764587 C173.77702484 90.24159023 170.09955493 90.24057995 166.421875 90.23828125 C163.86134776 90.24216854 161.30082117 90.24650328 158.74029541 90.25126648 C153.36004279 90.25874129 147.97986241 90.25856884 142.59960938 90.25317383 C136.41553438 90.24716682 130.2316888 90.25935841 124.04765296 90.2807439 C118.07239393 90.30063528 112.09725288 90.3035146 106.12195587 90.30000877 C103.59445918 90.3005192 101.06695862 90.30570415 98.53948212 90.31582069 C74.82644577 90.39900577 54.13210993 87.64347636 33.5625 74.9375 C33.2325 74.6075 32.9025 74.2775 32.5625 73.9375 C32.6126123 74.91674438 32.66272461 75.89598877 32.71435547 76.90490723 C33.18950836 86.20031661 33.66034169 95.49593643 34.12710571 104.79177094 C34.36712245 109.56913634 34.60858281 114.34641907 34.85351562 119.12353516 C35.0904847 123.74642308 35.3234355 128.36949859 35.55377197 132.99272156 C35.64167526 134.74353559 35.73094942 136.49428143 35.82171631 138.24494934 C36.10957317 143.80786715 36.36403917 149.37064375 36.5625 154.9375 C36.59049683 155.69825836 36.61849365 156.45901672 36.64733887 157.24282837 C36.71909186 159.43862914 36.76648012 161.63346385 36.8046875 163.83007812 C36.83159668 165.08308716 36.85850586 166.33609619 36.88623047 167.6270752 C36.53083176 171.26133521 35.78877415 173.07158257 33.5625 175.9375 C29.79756872 178.10957574 27.2914874 178.9375 22.9375 178.9375 C18.71909602 177.68760252 17.15682553 176.49543215 14.5625 172.9375 C12.52409814 166.75585057 12.17792115 160.33130962 11.9375 153.875 C11.87949219 152.5765918 11.87949219 152.5765918 11.8203125 151.25195312 C11.72729519 149.14743641 11.64387331 147.0424991 11.5625 144.9375 C8.03373888 151.70423346 5.27888422 158.62073416 2.65039062 165.77929688 C0.70807835 170.83237358 -1.05146439 174.50704268 -5.4375 177.9375 C-9.41427577 179.53127526 -12.74871098 179.17142835 -16.75 177.8125 C-19.81219941 175.6760818 -21.05101682 174.40370794 -22.4375 170.9375 C-22.88076121 164.66804027 -21.80941645 160.2321957 -19.4375 154.46875 C-19.1259346 153.67918411 -18.8143692 152.88961823 -18.49336243 152.0761261 C-17.82875694 150.39429065 -17.15842955 148.71470668 -16.4828186 147.03726196 C-14.7211086 142.65579718 -13.00975419 138.25468525 -11.29296875 133.85546875 C-10.78542305 132.55919807 -10.78542305 132.55919807 -10.2676239 131.23674011 C-1.20796899 108.04116618 5.43726811 85.0266431 6.0625 60 C6.11664063 59.07509766 6.17078125 58.15019531 6.2265625 57.19726562 C6.36048923 50.37178525 4.63431638 46.8341815 0.47802734 41.49829102 C-2.78908784 37.13061689 -5.02559513 32.27852966 -7.375 27.375 C-7.86806641 26.39853516 -8.36113281 25.42207031 -8.86914062 24.41601562 C-11.84202074 18.25172192 -13.17229455 13.78659419 -12.4375 6.9375 C-9.42033047 1.87296544 -5.93572586 -0.56579709 0 0 Z " fill="#000000" transform="translate(241.4375,317.0625)"/>
<path d="M0 0 C3.89065271 1.6555969 5.43048629 3.13683329 7 7 C7.77488818 13.72497167 6.62547756 20.29842401 5.2421875 26.86328125 C5.05665314 27.77595261 4.87111877 28.68862396 4.67996216 29.62895203 C4.28620272 31.55350277 3.88760028 33.47706843 3.484375 35.3996582 C2.88503676 38.2645238 2.30460755 41.13272522 1.7265625 44.00195312 C-3.03420076 67.26367939 -9.64942059 89.79347758 -19.625 111.375 C-19.98505127 112.16600098 -20.34510254 112.95700195 -20.71606445 113.77197266 C-22.8787508 118.3099234 -25.06068733 121.72986544 -29 125 C-33.24040486 126.25641626 -35.50501822 126.14849453 -39.75 124.875 C-43.3542111 122.79564744 -44.56676684 121.87816033 -46 118 C-46.99808178 110.71018927 -44.8840601 105.76884888 -41.5 99.4375 C-30.62103857 77.76076341 -25.47020206 54.73735774 -20.83322144 31.06947327 C-20.4406243 29.07059465 -20.0433231 27.07269973 -19.64501953 25.07495117 C-19.14314785 22.54124704 -18.65390639 20.00499827 -18.17919922 17.46606445 C-16.04427405 6.63439185 -16.04427405 6.63439185 -12 2 C-7.95514343 -0.69657104 -4.74692804 -0.5422677 0 0 Z " fill="#000000" transform="translate(250,153)"/>
<path d="M0 0 C8.57870427 0.09126373 16.69680654 2.48955076 24.95678711 4.59887695 C26.72807789 5.04121798 28.49965463 5.48241536 30.27149963 5.92253113 C34.91392617 7.07890968 39.55234592 8.25061948 44.19006348 9.42572021 C48.88276381 10.61188621 53.57909389 11.78348908 58.27514648 12.95629883 C65.93661113 14.87160349 73.59686661 16.79162761 81.25162411 18.73359394 C84.59386003 19.58063213 87.93733461 20.41366046 91.29031372 21.21762085 C92.36497894 21.47580597 93.43964417 21.73399109 94.546875 22 C95.45740128 22.21383835 96.36792755 22.4276767 97.30604553 22.647995 C101.21522859 23.81638803 103.6148021 25.72585282 105.70678711 29.1809082 C107.2405366 32.93007363 106.66611383 36.49316924 105.58569336 40.3293457 C103.38745521 43.03486958 101.69012669 44.77712904 98.58569336 46.3293457 C93.3055288 46.62261931 88.59115559 45.83791942 83.50170898 44.55688477 C82.33662811 44.27391541 82.33662811 44.27391541 81.14801025 43.98522949 C78.59403003 43.36285638 76.04303836 42.72905717 73.49194336 42.0949707 C71.69958405 41.65548768 69.90705987 41.21667654 68.11437988 40.77850342 C63.3968803 39.62332078 58.68188302 38.45821965 53.96728516 37.29125977 C50.15584107 36.34962027 46.3426801 35.41505562 42.52939606 34.48089981 C37.93297269 33.35471991 33.33735472 32.22527219 28.74194336 31.0949707 C27.88454056 30.88417122 27.02713776 30.67337173 26.14375305 30.45618439 C21.35978923 29.27840708 16.57846908 28.09081992 11.80108643 26.88661194 C10.32128803 26.51437927 8.84085329 26.14466748 7.35980225 25.77745056 C5.27210522 25.25839314 3.18744546 24.72855918 1.10327148 24.19555664 C-0.07618042 23.89776306 -1.25563232 23.59996948 -2.4708252 23.29315186 C-5.21422151 22.39486108 -6.82847409 21.72443545 -8.85180664 19.7043457 C-10.96427522 15.14141358 -11.47628973 11.26880193 -10.41430664 6.3293457 C-7.97680664 3.2668457 -7.97680664 3.2668457 -5.41430664 1.3293457 C-3.81714138 -0.26781955 -2.22290715 0.07094907 0 0 Z " fill="#000000" transform="translate(333.414306640625,117.670654296875)"/>
</svg>
